<?xml version="1.0" encoding="UTF-8" standalone="no"?>
<!DOCTYPE svg PUBLIC "-//W3C//DTD SVG 1.1//EN"
 "http://www.w3.org/Graphics/SVG/1.1/DTD/svg11.dtd">
<!-- Generated by graphviz version 2.38.0 (20140413.2041)
 -->
<!-- Title: abstract_syntax_tree Pages: 1 -->
<svg width="234pt" height="588pt"
 viewBox="0.00 0.00 234.00 588.00" xmlns="http://www.w3.org/2000/svg" xmlns:xlink="http://www.w3.org/1999/xlink">
<g id="graph0" class="graph" transform="scale(1 1) rotate(0) translate(4 584)">
<title>abstract_syntax_tree</title>
<polygon fill="white" stroke="none" points="-4,4 -4,-584 230,-584 230,4 -4,4"/>
<!-- node_0 -->
<g id="node1" class="node"><title>node_0</title>
<path fill="none" stroke="black" stroke-width="0.7" d="M78.5,-580C78.5,-580 42.5,-580 42.5,-580 36.5,-580 30.5,-574 30.5,-568 30.5,-568 30.5,-556 30.5,-556 30.5,-550 36.5,-544 42.5,-544 42.5,-544 78.5,-544 78.5,-544 84.5,-544 90.5,-550 90.5,-556 90.5,-556 90.5,-568 90.5,-568 90.5,-574 84.5,-580 78.5,-580"/>
<text text-anchor="start" x="38.5" y="-559.2" font-family="sans-serif" font-size="11.00">function</text>
</g>
<!-- node_1 -->
<g id="node2" class="node"><title>node_1</title>
<path fill="none" stroke="black" stroke-width="0.7" d="M75.5,-507C75.5,-507 45.5,-507 45.5,-507 39.5,-507 33.5,-501 33.5,-495 33.5,-495 33.5,-483 33.5,-483 33.5,-477 39.5,-471 45.5,-471 45.5,-471 75.5,-471 75.5,-471 81.5,-471 87.5,-477 87.5,-483 87.5,-483 87.5,-495 87.5,-495 87.5,-501 81.5,-507 75.5,-507"/>
<text text-anchor="start" x="47" y="-486.2" font-family="sans-serif" font-size="11.00">body</text>
</g>
<!-- node_0&#45;&gt;node_1 -->
<g id="edge1" class="edge"><title>node_0&#45;&gt;node_1</title>
<path fill="none" stroke="black" stroke-width="0.7" d="M60.5,-543.813C60.5,-535.789 60.5,-526.047 60.5,-517.069"/>
<polygon fill="black" stroke="black" stroke-width="0.7" points="64.0001,-517.029 60.5,-507.029 57.0001,-517.029 64.0001,-517.029"/>
</g>
<!-- node_2 -->
<g id="node3" class="node"><title>node_2</title>
<path fill="none" stroke="black" stroke-width="0.7" d="M85.5,-434C85.5,-434 35.5,-434 35.5,-434 29.5,-434 23.5,-428 23.5,-422 23.5,-422 23.5,-410 23.5,-410 23.5,-404 29.5,-398 35.5,-398 35.5,-398 85.5,-398 85.5,-398 91.5,-398 97.5,-404 97.5,-410 97.5,-410 97.5,-422 97.5,-422 97.5,-428 91.5,-434 85.5,-434"/>
<text text-anchor="start" x="31.5" y="-413.2" font-family="sans-serif" font-size="11.00">statement</text>
</g>
<!-- node_1&#45;&gt;node_2 -->
<g id="edge10" class="edge"><title>node_1&#45;&gt;node_2</title>
<path fill="none" stroke="black" stroke-width="0.7" d="M60.5,-470.813C60.5,-462.789 60.5,-453.047 60.5,-444.069"/>
<polygon fill="black" stroke="black" stroke-width="0.7" points="64.0001,-444.029 60.5,-434.029 57.0001,-444.029 64.0001,-444.029"/>
</g>
<!-- node_3 -->
<g id="node4" class="node"><title>node_3</title>
<path fill="none" stroke="black" stroke-width="0.7" d="M89,-361C89,-361 32,-361 32,-361 26,-361 20,-355 20,-349 20,-349 20,-337 20,-337 20,-331 26,-325 32,-325 32,-325 89,-325 89,-325 95,-325 101,-331 101,-337 101,-337 101,-349 101,-349 101,-355 95,-361 89,-361"/>
<text text-anchor="start" x="28" y="-340.2" font-family="sans-serif" font-size="11.00">function call</text>
</g>
<!-- node_2&#45;&gt;node_3 -->
<g id="edge9" class="edge"><title>node_2&#45;&gt;node_3</title>
<path fill="none" stroke="black" stroke-width="0.7" d="M60.5,-397.813C60.5,-389.789 60.5,-380.047 60.5,-371.069"/>
<polygon fill="black" stroke="black" stroke-width="0.7" points="64.0001,-371.029 60.5,-361.029 57.0001,-371.029 64.0001,-371.029"/>
</g>
<!-- node_4 -->
<g id="node5" class="node"><title>node_4</title>
<path fill="none" stroke="black" stroke-width="0.7" d="M47,-277C47,-277 12,-277 12,-277 6,-277 0,-271 0,-265 0,-265 0,-253 0,-253 0,-247 6,-241 12,-241 12,-241 47,-241 47,-241 53,-241 59,-247 59,-253 59,-253 59,-265 59,-265 59,-271 53,-277 47,-277"/>
<text text-anchor="start" x="8" y="-262.2" font-family="sans-serif" font-size="11.00">variable</text>
<text text-anchor="start" x="12.5" y="-250.2" font-family="sans-serif" font-size="11.00" fill="blue">println</text>
</g>
<!-- node_3&#45;&gt;node_4 -->
<g id="edge2" class="edge"><title>node_3&#45;&gt;node_4</title>
<path fill="none" stroke="black" stroke-width="0.7" d="M51.4574,-324.801C48.7044,-319.209 45.8011,-312.918 43.5,-307 41.0298,-300.647 38.7353,-293.67 36.7483,-287.082"/>
<polygon fill="black" stroke="black" stroke-width="0.7" points="40.0308,-285.833 33.8978,-277.194 33.3047,-287.772 40.0308,-285.833"/>
<text text-anchor="middle" x="60.5" y="-298.2" font-family="sans-serif" font-size="11.00">object</text>
</g>
<!-- node_5 -->
<g id="node6" class="node"><title>node_5</title>
<path fill="none" stroke="black" stroke-width="0.7" d="M119.5,-277C119.5,-277 89.5,-277 89.5,-277 83.5,-277 77.5,-271 77.5,-265 77.5,-265 77.5,-253 77.5,-253 77.5,-247 83.5,-241 89.5,-241 89.5,-241 119.5,-241 119.5,-241 125.5,-241 131.5,-247 131.5,-253 131.5,-253 131.5,-265 131.5,-265 131.5,-271 125.5,-277 119.5,-277"/>
<text text-anchor="start" x="92" y="-256.2" font-family="sans-serif" font-size="11.00">args</text>
</g>
<!-- node_3&#45;&gt;node_5 -->
<g id="edge3" class="edge"><title>node_3&#45;&gt;node_5</title>
<path fill="none" stroke="black" stroke-width="0.7" d="M69.8313,-324.61C75.8217,-313.446 83.7131,-298.739 90.4535,-286.177"/>
<polygon fill="black" stroke="black" stroke-width="0.7" points="93.6889,-287.55 95.3331,-277.084 87.5208,-284.241 93.6889,-287.55"/>
</g>
<!-- node_6 -->
<g id="node7" class="node"><title>node_6</title>
<path fill="none" stroke="black" stroke-width="0.7" d="M122,-204C122,-204 87,-204 87,-204 81,-204 75,-198 75,-192 75,-192 75,-180 75,-180 75,-174 81,-168 87,-168 87,-168 122,-168 122,-168 128,-168 134,-174 134,-180 134,-180 134,-192 134,-192 134,-198 128,-204 122,-204"/>
<text text-anchor="start" x="83" y="-189.2" font-family="sans-serif" font-size="11.00">addition</text>
<text text-anchor="start" x="99.5" y="-177.2" font-family="sans-serif" font-size="11.00" fill="blue">+</text>
</g>
<!-- node_5&#45;&gt;node_6 -->
<g id="edge8" class="edge"><title>node_5&#45;&gt;node_6</title>
<path fill="none" stroke="black" stroke-width="0.7" d="M104.5,-240.813C104.5,-232.789 104.5,-223.047 104.5,-214.069"/>
<polygon fill="black" stroke="black" stroke-width="0.7" points="108,-214.029 104.5,-204.029 101,-214.029 108,-214.029"/>
</g>
<!-- node_7 -->
<g id="node8" class="node"><title>node_7</title>
<path fill="none" stroke="black" stroke-width="0.7" d="M88,-120C88,-120 57,-120 57,-120 51,-120 45,-114 45,-108 45,-108 45,-96 45,-96 45,-90 51,-84 57,-84 57,-84 88,-84 88,-84 94,-84 100,-90 100,-96 100,-96 100,-108 100,-108 100,-114 94,-120 88,-120"/>
<text text-anchor="start" x="53" y="-105.2" font-family="sans-serif" font-size="11.00">integer</text>
<text text-anchor="start" x="68.5" y="-93.2" font-family="sans-serif" font-size="11.00" fill="blue">2</text>
</g>
<!-- node_6&#45;&gt;node_7 -->
<g id="edge4" class="edge"><title>node_6&#45;&gt;node_7</title>
<path fill="none" stroke="black" stroke-width="0.7" d="M97.7136,-167.61C93.3997,-156.555 87.7301,-142.027 82.86,-129.548"/>
<polygon fill="black" stroke="black" stroke-width="0.7" points="86.0629,-128.127 79.1669,-120.084 79.5418,-130.672 86.0629,-128.127"/>
<text text-anchor="middle" x="98.5" y="-141.2" font-family="sans-serif" font-size="11.00">left</text>
</g>
<!-- node_8 -->
<g id="node9" class="node"><title>node_8</title>
<path fill="none" stroke="black" stroke-width="0.7" d="M194.5,-120C194.5,-120 130.5,-120 130.5,-120 124.5,-120 118.5,-114 118.5,-108 118.5,-108 118.5,-96 118.5,-96 118.5,-90 124.5,-84 130.5,-84 130.5,-84 194.5,-84 194.5,-84 200.5,-84 206.5,-90 206.5,-96 206.5,-96 206.5,-108 206.5,-108 206.5,-114 200.5,-120 194.5,-120"/>
<text text-anchor="start" x="126.5" y="-105.2" font-family="sans-serif" font-size="11.00">multiplication</text>
<text text-anchor="start" x="159" y="-93.2" font-family="sans-serif" font-size="11.00" fill="blue">*</text>
</g>
<!-- node_6&#45;&gt;node_8 -->
<g id="edge7" class="edge"><title>node_6&#45;&gt;node_8</title>
<path fill="none" stroke="black" stroke-width="0.7" d="M116.8,-167.61C124.852,-156.227 135.508,-141.161 144.505,-128.441"/>
<polygon fill="black" stroke="black" stroke-width="0.7" points="147.499,-130.269 150.416,-120.084 141.784,-126.227 147.499,-130.269"/>
<text text-anchor="middle" x="149" y="-141.2" font-family="sans-serif" font-size="11.00">right</text>
</g>
<!-- node_9 -->
<g id="node10" class="node"><title>node_9</title>
<path fill="none" stroke="black" stroke-width="0.7" d="M141,-36C141,-36 110,-36 110,-36 104,-36 98,-30 98,-24 98,-24 98,-12 98,-12 98,-6 104,-0 110,-0 110,-0 141,-0 141,-0 147,-0 153,-6 153,-12 153,-12 153,-24 153,-24 153,-30 147,-36 141,-36"/>
<text text-anchor="start" x="106" y="-21.2" font-family="sans-serif" font-size="11.00">integer</text>
<text text-anchor="start" x="121.5" y="-9.2" font-family="sans-serif" font-size="11.00" fill="blue">3</text>
</g>
<!-- node_8&#45;&gt;node_9 -->
<g id="edge5" class="edge"><title>node_8&#45;&gt;node_9</title>
<path fill="none" stroke="black" stroke-width="0.7" d="M154.653,-83.6099C149.665,-72.5554 143.11,-58.0272 137.479,-45.5476"/>
<polygon fill="black" stroke="black" stroke-width="0.7" points="140.512,-43.7594 133.209,-36.0838 134.131,-46.6384 140.512,-43.7594"/>
<text text-anchor="middle" x="154.5" y="-57.2" font-family="sans-serif" font-size="11.00">left</text>
</g>
<!-- node_10 -->
<g id="node11" class="node"><title>node_10</title>
<path fill="none" stroke="black" stroke-width="0.7" d="M214,-36C214,-36 183,-36 183,-36 177,-36 171,-30 171,-24 171,-24 171,-12 171,-12 171,-6 177,-0 183,-0 183,-0 214,-0 214,-0 220,-0 226,-6 226,-12 226,-12 226,-24 226,-24 226,-30 220,-36 214,-36"/>
<text text-anchor="start" x="179" y="-21.2" font-family="sans-serif" font-size="11.00">integer</text>
<text text-anchor="start" x="194.5" y="-9.2" font-family="sans-serif" font-size="11.00" fill="blue">4</text>
</g>
<!-- node_8&#45;&gt;node_10 -->
<g id="edge6" class="edge"><title>node_8&#45;&gt;node_10</title>
<path fill="none" stroke="black" stroke-width="0.7" d="M170.135,-83.6099C174.988,-72.5554 181.366,-58.0272 186.845,-45.5476"/>
<polygon fill="black" stroke="black" stroke-width="0.7" points="190.185,-46.6473 191,-36.0838 183.775,-43.8333 190.185,-46.6473"/>
<text text-anchor="middle" x="195" y="-57.2" font-family="sans-serif" font-size="11.00">right</text>
</g>
</g>
</svg>
