<?xml version="1.0" encoding="UTF-8" standalone="no"?>
<!DOCTYPE svg PUBLIC "-//W3C//DTD SVG 1.1//EN"
 "http://www.w3.org/Graphics/SVG/1.1/DTD/svg11.dtd">
<!-- Generated by graphviz version 2.38.0 (20140413.2041)
 -->
<!-- Title: graphname Pages: 1 -->
<svg width="206pt" height="134pt"
 viewBox="0.00 0.00 206.17 134.17" xmlns="http://www.w3.org/2000/svg" xmlns:xlink="http://www.w3.org/1999/xlink">
<g id="graph0" class="graph" transform="scale(1 1) rotate(0) translate(4 130.172)">
<title>graphname</title>
<polygon fill="white" stroke="none" points="-4,4 -4,-130.172 202.172,-130.172 202.172,4 -4,4"/>
<!-- F -->
<g id="node1" class="node"><title>F</title>
<path fill="none" stroke="black" stroke-width="0.7" d="M114.086,-126.172C114.086,-126.172 84.0858,-126.172 84.0858,-126.172 78.0858,-126.172 72.0858,-120.172 72.0858,-114.172 72.0858,-114.172 72.0858,-102.172 72.0858,-102.172 72.0858,-96.1717 78.0858,-90.1717 84.0858,-90.1717 84.0858,-90.1717 114.086,-90.1717 114.086,-90.1717 120.086,-90.1717 126.086,-96.1717 126.086,-102.172 126.086,-102.172 126.086,-114.172 126.086,-114.172 126.086,-120.172 120.086,-126.172 114.086,-126.172"/>
<text text-anchor="middle" x="99.0858" y="-105.072" font-family="sans-serif" font-size="12.00">F</text>
</g>
<!-- x -->
<g id="node2" class="node"><title>x</title>
<ellipse fill="none" stroke="black" stroke-width="0.7" cx="27.0858" cy="-27.0858" rx="27.1719" ry="27.1719"/>
<text text-anchor="middle" x="27.0858" y="-23.9858" font-family="sans-serif" font-size="12.00">x: 10</text>
</g>
<!-- F&#45;&gt;x -->
<g id="edge1" class="edge"><title>F&#45;&gt;x</title>
<path fill="none" stroke="black" stroke-width="0.7" d="M83.4629,-90.0112C74.2554,-79.8975 62.3961,-66.8712 51.932,-55.3772"/>
<polygon fill="black" stroke="black" stroke-width="0.7" points="54.2804,-52.7576 44.9602,-47.7193 49.1041,-57.4701 54.2804,-52.7576"/>
</g>
<!-- y -->
<g id="node3" class="node"><title>y</title>
<ellipse fill="none" stroke="black" stroke-width="0.7" cx="99.0858" cy="-27.0858" rx="27.1719" ry="27.1719"/>
<text text-anchor="middle" x="99.0858" y="-23.9858" font-family="sans-serif" font-size="12.00">y: 20</text>
</g>
<!-- F&#45;&gt;y -->
<g id="edge2" class="edge"><title>F&#45;&gt;y</title>
<path fill="none" stroke="black" stroke-width="0.7" d="M99.0858,-90.0112C99.0858,-82.5012 99.0858,-73.3851 99.0858,-64.483"/>
<polygon fill="black" stroke="black" stroke-width="0.7" points="102.586,-64.2401 99.0858,-54.2401 95.5859,-64.2401 102.586,-64.2401"/>
</g>
<!-- z -->
<g id="node4" class="node"><title>z</title>
<ellipse fill="none" stroke="black" stroke-width="0.7" cx="171.086" cy="-27.0858" rx="27.1719" ry="27.1719"/>
<text text-anchor="middle" x="171.086" y="-23.9858" font-family="sans-serif" font-size="12.00">z: 30</text>
</g>
<!-- F&#45;&gt;z -->
<g id="edge3" class="edge"><title>F&#45;&gt;z</title>
<path fill="none" stroke="black" stroke-width="0.7" d="M114.709,-90.0112C123.916,-79.8975 135.776,-66.8712 146.24,-55.3772"/>
<polygon fill="black" stroke="black" stroke-width="0.7" points="149.068,-57.4701 153.211,-47.7193 143.891,-52.7576 149.068,-57.4701"/>
</g>
</g>
</svg>
