<?xml version="1.0" encoding="UTF-8" standalone="no"?>
<!DOCTYPE svg PUBLIC "-//W3C//DTD SVG 1.1//EN"
 "http://www.w3.org/Graphics/SVG/1.1/DTD/svg11.dtd">
<!-- Generated by graphviz version 2.38.0 (20140413.2041)
 -->
<!-- Title: graphname Pages: 1 -->
<svg width="170pt" height="315pt"
 viewBox="0.00 0.00 170.17 314.51" xmlns="http://www.w3.org/2000/svg" xmlns:xlink="http://www.w3.org/1999/xlink">
<g id="graph0" class="graph" transform="scale(1 1) rotate(0) translate(4 310.515)">
<title>graphname</title>
<polygon fill="white" stroke="none" points="-4,4 -4,-310.515 166.172,-310.515 166.172,4 -4,4"/>
<!-- A -->
<g id="node1" class="node"><title>A</title>
<path fill="none" stroke="black" stroke-width="0.7" d="M42.0858,-135.257C42.0858,-135.257 12.0858,-135.257 12.0858,-135.257 6.08583,-135.257 0.0858285,-129.257 0.0858285,-123.257 0.0858285,-123.257 0.0858285,-111.257 0.0858285,-111.257 0.0858285,-105.257 6.08583,-99.2575 12.0858,-99.2575 12.0858,-99.2575 42.0858,-99.2575 42.0858,-99.2575 48.0858,-99.2575 54.0858,-105.257 54.0858,-111.257 54.0858,-111.257 54.0858,-123.257 54.0858,-123.257 54.0858,-129.257 48.0858,-135.257 42.0858,-135.257"/>
<text text-anchor="middle" x="27.0858" y="-114.157" font-family="sans-serif" font-size="12.00">A</text>
</g>
<!-- x -->
<g id="node2" class="node"><title>x</title>
<ellipse fill="none" stroke="black" stroke-width="0.7" cx="27.0858" cy="-27.0858" rx="27.1719" ry="27.1719"/>
<text text-anchor="middle" x="27.0858" y="-23.9858" font-family="sans-serif" font-size="12.00">x: 10</text>
</g>
<!-- A&#45;&gt;x -->
<g id="edge1" class="edge"><title>A&#45;&gt;x</title>
<path fill="none" stroke="black" stroke-width="0.7" d="M27.0858,-99.2571C27.0858,-89.4261 27.0858,-76.6613 27.0858,-64.6614"/>
<polygon fill="black" stroke="black" stroke-width="0.7" points="30.5859,-64.4058 27.0858,-54.4059 23.5859,-64.4059 30.5859,-64.4058"/>
</g>
<!-- B -->
<g id="node3" class="node"><title>B</title>
<path fill="none" stroke="black" stroke-width="0.7" d="M78.0858,-225.429C78.0858,-225.429 48.0858,-225.429 48.0858,-225.429 42.0858,-225.429 36.0858,-219.429 36.0858,-213.429 36.0858,-213.429 36.0858,-201.429 36.0858,-201.429 36.0858,-195.429 42.0858,-189.429 48.0858,-189.429 48.0858,-189.429 78.0858,-189.429 78.0858,-189.429 84.0858,-189.429 90.0858,-195.429 90.0858,-201.429 90.0858,-201.429 90.0858,-213.429 90.0858,-213.429 90.0858,-219.429 84.0858,-225.429 78.0858,-225.429"/>
<text text-anchor="middle" x="63.0858" y="-204.329" font-family="sans-serif" font-size="12.00">B</text>
</g>
<!-- B&#45;&gt;A -->
<g id="edge2" class="edge"><title>B&#45;&gt;A</title>
<path fill="none" stroke="black" stroke-width="0.7" d="M56.1447,-189.429C50.9984,-176.824 43.883,-159.397 37.9813,-144.943"/>
<polygon fill="black" stroke="black" stroke-width="0.7" points="41.1489,-143.442 34.1285,-135.507 34.6683,-146.088 41.1489,-143.442"/>
</g>
<!-- y -->
<g id="node4" class="node"><title>y</title>
<ellipse fill="none" stroke="black" stroke-width="0.7" cx="99.0858" cy="-117.257" rx="27.1719" ry="27.1719"/>
<text text-anchor="middle" x="99.0858" y="-114.157" font-family="sans-serif" font-size="12.00">y: 20</text>
</g>
<!-- B&#45;&gt;y -->
<g id="edge3" class="edge"><title>B&#45;&gt;y</title>
<path fill="none" stroke="black" stroke-width="0.7" d="M70.027,-189.429C74.3579,-178.821 80.0834,-164.798 85.3065,-152.006"/>
<polygon fill="black" stroke="black" stroke-width="0.7" points="88.6315,-153.121 89.1713,-142.54 82.1509,-150.475 88.6315,-153.121"/>
</g>
<!-- C -->
<g id="node5" class="node"><title>C</title>
<path fill="none" stroke="black" stroke-width="0.7" d="M114.086,-306.515C114.086,-306.515 84.0858,-306.515 84.0858,-306.515 78.0858,-306.515 72.0858,-300.515 72.0858,-294.515 72.0858,-294.515 72.0858,-282.515 72.0858,-282.515 72.0858,-276.515 78.0858,-270.515 84.0858,-270.515 84.0858,-270.515 114.086,-270.515 114.086,-270.515 120.086,-270.515 126.086,-276.515 126.086,-282.515 126.086,-282.515 126.086,-294.515 126.086,-294.515 126.086,-300.515 120.086,-306.515 114.086,-306.515"/>
<text text-anchor="middle" x="99.0858" y="-285.415" font-family="sans-serif" font-size="12.00">C</text>
</g>
<!-- C&#45;&gt;B -->
<g id="edge4" class="edge"><title>C&#45;&gt;B</title>
<path fill="none" stroke="black" stroke-width="0.7" d="M91.2744,-270.355C86.5569,-259.991 80.4472,-246.569 75.1224,-234.871"/>
<polygon fill="black" stroke="black" stroke-width="0.7" points="78.2106,-233.207 70.882,-225.556 71.8396,-236.108 78.2106,-233.207"/>
</g>
<!-- z -->
<g id="node6" class="node"><title>z</title>
<ellipse fill="none" stroke="black" stroke-width="0.7" cx="135.086" cy="-207.429" rx="27.1719" ry="27.1719"/>
<text text-anchor="middle" x="135.086" y="-204.329" font-family="sans-serif" font-size="12.00">z: 30</text>
</g>
<!-- C&#45;&gt;z -->
<g id="edge5" class="edge"><title>C&#45;&gt;z</title>
<path fill="none" stroke="black" stroke-width="0.7" d="M106.897,-270.355C110.721,-261.954 115.459,-251.545 119.953,-241.673"/>
<polygon fill="black" stroke="black" stroke-width="0.7" points="123.191,-243.008 124.149,-232.456 116.82,-240.107 123.191,-243.008"/>
</g>
</g>
</svg>
