<?xml version="1.0" encoding="UTF-8" standalone="no"?>
<!DOCTYPE svg PUBLIC "-//W3C//DTD SVG 1.1//EN"
 "http://www.w3.org/Graphics/SVG/1.1/DTD/svg11.dtd">
<!-- Generated by graphviz version 2.38.0 (20140413.2041)
 -->
<!-- Title: graphname Pages: 1 -->
<svg width="560pt" height="332pt"
 viewBox="0.00 0.00 560.37 332.00" xmlns="http://www.w3.org/2000/svg" xmlns:xlink="http://www.w3.org/1999/xlink">
<g id="graph0" class="graph" transform="scale(1 1) rotate(0) translate(4 328)">
<title>graphname</title>
<polygon fill="white" stroke="none" points="-4,4 -4,-328 556.371,-328 556.371,4 -4,4"/>
<!-- Object -->
<g id="node1" class="node"><title>Object</title>
<ellipse fill="none" stroke="black" stroke-width="0.7" cx="160.448" cy="-18" rx="27" ry="18"/>
<text text-anchor="middle" x="160.448" y="-15.5" font-family="sans-serif" font-size="10.00">Object</text>
</g>
<!-- Exception -->
<g id="node2" class="node"><title>Exception</title>
<ellipse fill="none" stroke="black" stroke-width="0.7" cx="160.448" cy="-90" rx="33.6077" ry="18"/>
<text text-anchor="middle" x="160.448" y="-87.5" font-family="sans-serif" font-size="10.00">Exception</text>
</g>
<!-- Exception&#45;&gt;Object -->
<g id="edge1" class="edge"><title>Exception&#45;&gt;Object</title>
<path fill="none" stroke="black" stroke-width="0.7" d="M160.448,-71.6966C160.448,-63.9827 160.448,-54.7125 160.448,-46.1124"/>
<polygon fill="black" stroke="black" stroke-width="0.7" points="163.948,-46.1043 160.448,-36.1043 156.948,-46.1044 163.948,-46.1043"/>
</g>
<!-- IllegalArgument -->
<g id="node3" class="node"><title>IllegalArgument</title>
<ellipse fill="none" stroke="black" stroke-width="0.7" cx="49.4477" cy="-162" rx="49.3954" ry="18"/>
<text text-anchor="middle" x="49.4477" y="-159.5" font-family="sans-serif" font-size="10.00">IllegalArgument</text>
</g>
<!-- IllegalArgument&#45;&gt;Exception -->
<g id="edge2" class="edge"><title>IllegalArgument&#45;&gt;Exception</title>
<path fill="none" stroke="black" stroke-width="0.7" d="M72.9879,-146.155C89.9417,-135.463 112.931,-120.965 131.085,-109.517"/>
<polygon fill="black" stroke="black" stroke-width="0.7" points="132.97,-112.466 139.561,-104.172 129.236,-106.545 132.97,-112.466"/>
</g>
<!-- IllegalContext -->
<g id="node4" class="node"><title>IllegalContext</title>
<ellipse fill="none" stroke="black" stroke-width="0.7" cx="160.448" cy="-162" rx="43.6222" ry="18"/>
<text text-anchor="middle" x="160.448" y="-159.5" font-family="sans-serif" font-size="10.00">IllegalContext</text>
</g>
<!-- IllegalContext&#45;&gt;Exception -->
<g id="edge3" class="edge"><title>IllegalContext&#45;&gt;Exception</title>
<path fill="none" stroke="black" stroke-width="0.7" d="M160.448,-143.697C160.448,-135.983 160.448,-126.712 160.448,-118.112"/>
<polygon fill="black" stroke="black" stroke-width="0.7" points="163.948,-118.104 160.448,-108.104 156.948,-118.104 163.948,-118.104"/>
</g>
<!-- IllegalOperation -->
<g id="node5" class="node"><title>IllegalOperation</title>
<ellipse fill="none" stroke="black" stroke-width="0.7" cx="271.448" cy="-162" rx="49.3954" ry="18"/>
<text text-anchor="middle" x="271.448" y="-159.5" font-family="sans-serif" font-size="10.00">IllegalOperation</text>
</g>
<!-- IllegalOperation&#45;&gt;Exception -->
<g id="edge4" class="edge"><title>IllegalOperation&#45;&gt;Exception</title>
<path fill="none" stroke="black" stroke-width="0.7" d="M247.907,-146.155C230.954,-135.463 207.964,-120.965 189.81,-109.517"/>
<polygon fill="black" stroke="black" stroke-width="0.7" points="191.66,-106.545 181.334,-104.172 187.926,-112.466 191.66,-106.545"/>
</g>
<!-- DivisionByZero -->
<g id="node6" class="node"><title>DivisionByZero</title>
<ellipse fill="none" stroke="black" stroke-width="0.7" cx="156.448" cy="-234" rx="45.8316" ry="18"/>
<text text-anchor="middle" x="156.448" y="-231.5" font-family="sans-serif" font-size="10.00">DivisionByZero</text>
</g>
<!-- DivisionByZero&#45;&gt;IllegalOperation -->
<g id="edge5" class="edge"><title>DivisionByZero&#45;&gt;IllegalOperation</title>
<path fill="none" stroke="black" stroke-width="0.7" d="M180.276,-218.496C197.124,-208.24 219.928,-194.36 238.514,-183.047"/>
<polygon fill="black" stroke="black" stroke-width="0.7" points="240.532,-185.916 247.254,-177.726 236.893,-179.936 240.532,-185.916"/>
</g>
<!-- IllegalReference -->
<g id="node7" class="node"><title>IllegalReference</title>
<ellipse fill="none" stroke="black" stroke-width="0.7" cx="271.448" cy="-234" rx="50.7503" ry="18"/>
<text text-anchor="middle" x="271.448" y="-231.5" font-family="sans-serif" font-size="10.00">IllegalReference</text>
</g>
<!-- IllegalReference&#45;&gt;IllegalOperation -->
<g id="edge6" class="edge"><title>IllegalReference&#45;&gt;IllegalOperation</title>
<path fill="none" stroke="black" stroke-width="0.7" d="M271.448,-215.697C271.448,-207.983 271.448,-198.712 271.448,-190.112"/>
<polygon fill="black" stroke="black" stroke-width="0.7" points="274.948,-190.104 271.448,-180.104 267.948,-190.104 274.948,-190.104"/>
</g>
<!-- IllegalType -->
<g id="node8" class="node"><title>IllegalType</title>
<ellipse fill="none" stroke="black" stroke-width="0.7" cx="377.448" cy="-234" rx="37.1717" ry="18"/>
<text text-anchor="middle" x="377.448" y="-231.5" font-family="sans-serif" font-size="10.00">IllegalType</text>
</g>
<!-- IllegalType&#45;&gt;IllegalOperation -->
<g id="edge7" class="edge"><title>IllegalType&#45;&gt;IllegalOperation</title>
<path fill="none" stroke="black" stroke-width="0.7" d="M356.252,-219.003C341.023,-208.946 320.235,-195.218 303.052,-183.871"/>
<polygon fill="black" stroke="black" stroke-width="0.7" points="304.717,-180.776 294.444,-178.186 300.86,-186.618 304.717,-180.776"/>
</g>
<!-- IsNotAFunction -->
<g id="node9" class="node"><title>IsNotAFunction</title>
<ellipse fill="none" stroke="black" stroke-width="0.7" cx="267.448" cy="-306" rx="47.1863" ry="18"/>
<text text-anchor="middle" x="267.448" y="-303.5" font-family="sans-serif" font-size="10.00">IsNotAFunction</text>
</g>
<!-- IsNotAFunction&#45;&gt;IllegalType -->
<g id="edge8" class="edge"><title>IsNotAFunction&#45;&gt;IllegalType</title>
<path fill="none" stroke="black" stroke-width="0.7" d="M290.776,-290.155C307.102,-279.765 329.076,-265.782 346.813,-254.495"/>
<polygon fill="black" stroke="black" stroke-width="0.7" points="349.092,-257.193 355.65,-248.872 345.334,-251.288 349.092,-257.193"/>
</g>
<!-- IsNotAMethod -->
<g id="node10" class="node"><title>IsNotAMethod</title>
<ellipse fill="none" stroke="black" stroke-width="0.7" cx="377.448" cy="-306" rx="44.978" ry="18"/>
<text text-anchor="middle" x="377.448" y="-303.5" font-family="sans-serif" font-size="10.00">IsNotAMethod</text>
</g>
<!-- IsNotAMethod&#45;&gt;IllegalType -->
<g id="edge9" class="edge"><title>IsNotAMethod&#45;&gt;IllegalType</title>
<path fill="none" stroke="black" stroke-width="0.7" d="M377.448,-287.697C377.448,-279.983 377.448,-270.712 377.448,-262.112"/>
<polygon fill="black" stroke="black" stroke-width="0.7" points="380.948,-262.104 377.448,-252.104 373.948,-262.104 380.948,-262.104"/>
</g>
<!-- OperatorNotFound -->
<g id="node11" class="node"><title>OperatorNotFound</title>
<ellipse fill="none" stroke="black" stroke-width="0.7" cx="496.448" cy="-306" rx="55.8461" ry="18"/>
<text text-anchor="middle" x="496.448" y="-303.5" font-family="sans-serif" font-size="10.00">OperatorNotFound</text>
</g>
<!-- OperatorNotFound&#45;&gt;IllegalType -->
<g id="edge10" class="edge"><title>OperatorNotFound&#45;&gt;IllegalType</title>
<path fill="none" stroke="black" stroke-width="0.7" d="M470.919,-289.983C452.761,-279.302 428.254,-264.886 408.889,-253.495"/>
<polygon fill="black" stroke="black" stroke-width="0.7" points="410.516,-250.391 400.122,-248.338 406.967,-256.425 410.516,-250.391"/>
</g>
</g>
</svg>
