<?xml version="1.0" encoding="UTF-8" standalone="no"?>
<!DOCTYPE svg PUBLIC "-//W3C//DTD SVG 1.1//EN"
 "http://www.w3.org/Graphics/SVG/1.1/DTD/svg11.dtd">
<!-- Generated by graphviz version 2.38.0 (20140413.2041)
 -->
<!-- Title: graphname Pages: 1 -->
<svg width="593pt" height="584pt"
 viewBox="0.00 0.00 593.00 584.00" xmlns="http://www.w3.org/2000/svg" xmlns:xlink="http://www.w3.org/1999/xlink">
<g id="graph0" class="graph" transform="scale(1 1) rotate(0) translate(4 580)">
<title>graphname</title>
<polygon fill="white" stroke="none" points="-4,4 -4,-580 589,-580 589,4 -4,4"/>
<!-- Object -->
<g id="node1" class="node"><title>Object</title>
<path fill="none" stroke="black" stroke-width="0.7" d="M42,-414C42,-414 12,-414 12,-414 6,-414 0,-408 0,-402 0,-402 0,-390 0,-390 0,-384 6,-378 12,-378 12,-378 42,-378 42,-378 48,-378 54,-384 54,-390 54,-390 54,-402 54,-402 54,-408 48,-414 42,-414"/>
<text text-anchor="middle" x="27" y="-392.9" font-family="sans-serif" font-size="12.00">Object</text>
</g>
<!-- String -->
<g id="node2" class="node"><title>String</title>
<path fill="none" stroke="black" stroke-width="0.7" d="M139,-576C139,-576 109,-576 109,-576 103,-576 97,-570 97,-564 97,-564 97,-552 97,-552 97,-546 103,-540 109,-540 109,-540 139,-540 139,-540 145,-540 151,-546 151,-552 151,-552 151,-564 151,-564 151,-570 145,-576 139,-576"/>
<text text-anchor="middle" x="124" y="-554.9" font-family="sans-serif" font-size="12.00">String</text>
</g>
<!-- String&#45;&gt;Object -->
<g id="edge1" class="edge"><title>String&#45;&gt;Object</title>
<path fill="none" stroke="black" stroke-width="0.7" d="M98.0148,-539.692C95.1122,-536.969 92.3533,-534.046 90,-531 64.4411,-497.917 46.3921,-452.606 36.5898,-423.815"/>
<polygon fill="black" stroke="black" stroke-width="0.7" points="39.811,-422.407 33.3529,-414.008 33.1638,-424.601 39.811,-422.407"/>
</g>
<!-- Char -->
<g id="node3" class="node"><title>Char</title>
<path fill="none" stroke="black" stroke-width="0.7" d="M139,-522C139,-522 109,-522 109,-522 103,-522 97,-516 97,-510 97,-510 97,-498 97,-498 97,-492 103,-486 109,-486 109,-486 139,-486 139,-486 145,-486 151,-492 151,-498 151,-498 151,-510 151,-510 151,-516 145,-522 139,-522"/>
<text text-anchor="middle" x="124" y="-500.9" font-family="sans-serif" font-size="12.00">Char</text>
</g>
<!-- Char&#45;&gt;Object -->
<g id="edge2" class="edge"><title>Char&#45;&gt;Object</title>
<path fill="none" stroke="black" stroke-width="0.7" d="M99.3259,-485.764C96.0843,-482.946 92.8833,-479.978 90,-477 73.683,-460.145 57.6515,-439.045 45.9791,-422.606"/>
<polygon fill="black" stroke="black" stroke-width="0.7" points="48.5672,-420.2 39.9687,-414.009 42.8303,-424.211 48.5672,-420.2"/>
</g>
<!-- Integer -->
<g id="node4" class="node"><title>Integer</title>
<path fill="none" stroke="black" stroke-width="0.7" d="M260.5,-495C260.5,-495 229.5,-495 229.5,-495 223.5,-495 217.5,-489 217.5,-483 217.5,-483 217.5,-471 217.5,-471 217.5,-465 223.5,-459 229.5,-459 229.5,-459 260.5,-459 260.5,-459 266.5,-459 272.5,-465 272.5,-471 272.5,-471 272.5,-483 272.5,-483 272.5,-489 266.5,-495 260.5,-495"/>
<text text-anchor="middle" x="245" y="-473.9" font-family="sans-serif" font-size="12.00">Integer</text>
</g>
<!-- Number -->
<g id="node5" class="node"><title>Number</title>
<path fill="none" stroke="black" stroke-width="0.7" d="M141.5,-468C141.5,-468 106.5,-468 106.5,-468 100.5,-468 94.5,-462 94.5,-456 94.5,-456 94.5,-444 94.5,-444 94.5,-438 100.5,-432 106.5,-432 106.5,-432 141.5,-432 141.5,-432 147.5,-432 153.5,-438 153.5,-444 153.5,-444 153.5,-456 153.5,-456 153.5,-462 147.5,-468 141.5,-468"/>
<text text-anchor="middle" x="124" y="-446.9" font-family="sans-serif" font-size="12.00">Number</text>
</g>
<!-- Integer&#45;&gt;Number -->
<g id="edge3" class="edge"><title>Integer&#45;&gt;Number</title>
<path fill="none" stroke="black" stroke-width="0.7" d="M217.294,-470.941C201.484,-467.353 181.181,-462.747 163.645,-458.768"/>
<polygon fill="black" stroke="black" stroke-width="0.7" points="164.222,-455.31 153.695,-456.511 162.673,-462.137 164.222,-455.31"/>
</g>
<!-- Number&#45;&gt;Object -->
<g id="edge9" class="edge"><title>Number&#45;&gt;Object</title>
<path fill="none" stroke="black" stroke-width="0.7" d="M94.4969,-433.798C84.6053,-428.176 73.3979,-421.805 63.0409,-415.918"/>
<polygon fill="black" stroke="black" stroke-width="0.7" points="64.6359,-412.799 54.2126,-410.9 61.1767,-418.884 64.6359,-412.799"/>
</g>
<!-- Real -->
<g id="node6" class="node"><title>Real</title>
<path fill="none" stroke="black" stroke-width="0.7" d="M260,-441C260,-441 230,-441 230,-441 224,-441 218,-435 218,-429 218,-429 218,-417 218,-417 218,-411 224,-405 230,-405 230,-405 260,-405 260,-405 266,-405 272,-411 272,-417 272,-417 272,-429 272,-429 272,-435 266,-441 260,-441"/>
<text text-anchor="middle" x="245" y="-419.9" font-family="sans-serif" font-size="12.00">Real</text>
</g>
<!-- Real&#45;&gt;Number -->
<g id="edge4" class="edge"><title>Real&#45;&gt;Number</title>
<path fill="none" stroke="black" stroke-width="0.7" d="M217.885,-428.925C201.985,-432.533 181.383,-437.207 163.623,-441.237"/>
<polygon fill="black" stroke="black" stroke-width="0.7" points="162.53,-437.896 153.552,-443.522 164.079,-444.722 162.53,-437.896"/>
</g>
<!-- Boolean -->
<g id="node7" class="node"><title>Boolean</title>
<path fill="none" stroke="black" stroke-width="0.7" d="M141.5,-414C141.5,-414 106.5,-414 106.5,-414 100.5,-414 94.5,-408 94.5,-402 94.5,-402 94.5,-390 94.5,-390 94.5,-384 100.5,-378 106.5,-378 106.5,-378 141.5,-378 141.5,-378 147.5,-378 153.5,-384 153.5,-390 153.5,-390 153.5,-402 153.5,-402 153.5,-408 147.5,-414 141.5,-414"/>
<text text-anchor="middle" x="124" y="-392.9" font-family="sans-serif" font-size="12.00">Boolean</text>
</g>
<!-- Boolean&#45;&gt;Object -->
<g id="edge5" class="edge"><title>Boolean&#45;&gt;Object</title>
<path fill="none" stroke="black" stroke-width="0.7" d="M94.4969,-396C85.005,-396 74.3014,-396 64.3003,-396"/>
<polygon fill="black" stroke="black" stroke-width="0.7" points="64.2126,-392.5 54.2126,-396 64.2126,-399.5 64.2126,-392.5"/>
</g>
<!-- Array -->
<g id="node8" class="node"><title>Array</title>
<path fill="none" stroke="black" stroke-width="0.7" d="M139,-360C139,-360 109,-360 109,-360 103,-360 97,-354 97,-348 97,-348 97,-336 97,-336 97,-330 103,-324 109,-324 109,-324 139,-324 139,-324 145,-324 151,-330 151,-336 151,-336 151,-348 151,-348 151,-354 145,-360 139,-360"/>
<text text-anchor="middle" x="124" y="-338.9" font-family="sans-serif" font-size="12.00">Array</text>
</g>
<!-- Array&#45;&gt;Object -->
<g id="edge6" class="edge"><title>Array&#45;&gt;Object</title>
<path fill="none" stroke="black" stroke-width="0.7" d="M96.7894,-356.899C86.3021,-362.86 74.069,-369.813 62.8512,-376.19"/>
<polygon fill="black" stroke="black" stroke-width="0.7" points="61.0892,-373.165 54.1251,-381.15 64.5484,-379.251 61.0892,-373.165"/>
</g>
<!-- Null -->
<g id="node9" class="node"><title>Null</title>
<path fill="none" stroke="black" stroke-width="0.7" d="M260,-360C260,-360 230,-360 230,-360 224,-360 218,-354 218,-348 218,-348 218,-336 218,-336 218,-330 224,-324 230,-324 230,-324 260,-324 260,-324 266,-324 272,-330 272,-336 272,-336 272,-348 272,-348 272,-354 266,-360 260,-360"/>
<text text-anchor="middle" x="245" y="-338.9" font-family="sans-serif" font-size="12.00">Null</text>
</g>
<!-- Void -->
<g id="node10" class="node"><title>Void</title>
<path fill="none" stroke="black" stroke-width="0.7" d="M139,-306C139,-306 109,-306 109,-306 103,-306 97,-300 97,-294 97,-294 97,-282 97,-282 97,-276 103,-270 109,-270 109,-270 139,-270 139,-270 145,-270 151,-276 151,-282 151,-282 151,-294 151,-294 151,-300 145,-306 139,-306"/>
<text text-anchor="middle" x="124" y="-284.9" font-family="sans-serif" font-size="12.00">Void</text>
</g>
<!-- Null&#45;&gt;Void -->
<g id="edge7" class="edge"><title>Null&#45;&gt;Void</title>
<path fill="none" stroke="black" stroke-width="0.7" d="M217.885,-330.149C200.989,-322.482 178.783,-312.406 160.32,-304.028"/>
<polygon fill="black" stroke="black" stroke-width="0.7" points="161.607,-300.768 151.054,-299.823 158.714,-307.142 161.607,-300.768"/>
</g>
<!-- Void&#45;&gt;Object -->
<g id="edge10" class="edge"><title>Void&#45;&gt;Object</title>
<path fill="none" stroke="black" stroke-width="0.7" d="M99.3259,-306.236C96.0843,-309.054 92.8833,-312.022 90,-315 73.683,-331.855 57.6515,-352.955 45.9791,-369.394"/>
<polygon fill="black" stroke="black" stroke-width="0.7" points="42.8303,-367.789 39.9687,-377.991 48.5672,-371.8 42.8303,-367.789"/>
</g>
<!-- Undefined -->
<g id="node11" class="node"><title>Undefined</title>
<path fill="none" stroke="black" stroke-width="0.7" d="M268.5,-306C268.5,-306 221.5,-306 221.5,-306 215.5,-306 209.5,-300 209.5,-294 209.5,-294 209.5,-282 209.5,-282 209.5,-276 215.5,-270 221.5,-270 221.5,-270 268.5,-270 268.5,-270 274.5,-270 280.5,-276 280.5,-282 280.5,-282 280.5,-294 280.5,-294 280.5,-300 274.5,-306 268.5,-306"/>
<text text-anchor="middle" x="245" y="-284.9" font-family="sans-serif" font-size="12.00">Undefined</text>
</g>
<!-- Undefined&#45;&gt;Void -->
<g id="edge8" class="edge"><title>Undefined&#45;&gt;Void</title>
<path fill="none" stroke="black" stroke-width="0.7" d="M209.26,-288C194.211,-288 176.589,-288 161.362,-288"/>
<polygon fill="black" stroke="black" stroke-width="0.7" points="161.264,-284.5 151.264,-288 161.263,-291.5 161.264,-284.5"/>
</g>
<!-- Exception -->
<g id="node12" class="node"><title>Exception</title>
<path fill="none" stroke="black" stroke-width="0.7" d="M146,-225C146,-225 102,-225 102,-225 96,-225 90,-219 90,-213 90,-213 90,-201 90,-201 90,-195 96,-189 102,-189 102,-189 146,-189 146,-189 152,-189 158,-195 158,-201 158,-201 158,-213 158,-213 158,-219 152,-225 146,-225"/>
<text text-anchor="middle" x="124" y="-203.9" font-family="sans-serif" font-size="12.00">Exception</text>
</g>
<!-- Exception&#45;&gt;Object -->
<g id="edge11" class="edge"><title>Exception&#45;&gt;Object</title>
<path fill="none" stroke="black" stroke-width="0.7" d="M111.149,-225.181C104.605,-235.51 96.5095,-248.782 90,-261 70.6662,-297.287 51.3683,-340.733 39.5594,-368.35"/>
<polygon fill="black" stroke="black" stroke-width="0.7" points="36.2482,-367.193 35.5613,-377.765 42.6914,-369.929 36.2482,-367.193"/>
</g>
<!-- IllegalArgument -->
<g id="node13" class="node"><title>IllegalArgument</title>
<path fill="none" stroke="black" stroke-width="0.7" d="M284,-252C284,-252 206,-252 206,-252 200,-252 194,-246 194,-240 194,-240 194,-228 194,-228 194,-222 200,-216 206,-216 206,-216 284,-216 284,-216 290,-216 296,-222 296,-228 296,-228 296,-240 296,-240 296,-246 290,-252 284,-252"/>
<text text-anchor="middle" x="245" y="-230.9" font-family="sans-serif" font-size="12.00">IllegalArgument</text>
</g>
<!-- IllegalArgument&#45;&gt;Exception -->
<g id="edge12" class="edge"><title>IllegalArgument&#45;&gt;Exception</title>
<path fill="none" stroke="black" stroke-width="0.7" d="M193.878,-222.628C185.298,-220.681 176.451,-218.674 168.075,-216.773"/>
<polygon fill="black" stroke="black" stroke-width="0.7" points="168.669,-213.319 158.142,-214.52 167.12,-220.146 168.669,-213.319"/>
</g>
<!-- IttegalContext -->
<g id="node14" class="node"><title>IttegalContext</title>
<path fill="none" stroke="black" stroke-width="0.7" d="M278.5,-198C278.5,-198 211.5,-198 211.5,-198 205.5,-198 199.5,-192 199.5,-186 199.5,-186 199.5,-174 199.5,-174 199.5,-168 205.5,-162 211.5,-162 211.5,-162 278.5,-162 278.5,-162 284.5,-162 290.5,-168 290.5,-174 290.5,-174 290.5,-186 290.5,-186 290.5,-192 284.5,-198 278.5,-198"/>
<text text-anchor="middle" x="245" y="-176.9" font-family="sans-serif" font-size="12.00">IttegalContext</text>
</g>
<!-- IttegalContext&#45;&gt;Exception -->
<g id="edge13" class="edge"><title>IttegalContext&#45;&gt;Exception</title>
<path fill="none" stroke="black" stroke-width="0.7" d="M199.35,-190.131C189.161,-192.442 178.351,-194.895 168.222,-197.193"/>
<polygon fill="black" stroke="black" stroke-width="0.7" points="167.347,-193.803 158.369,-199.429 168.896,-200.629 167.347,-193.803"/>
</g>
<!-- IllegalOperation -->
<g id="node15" class="node"><title>IllegalOperation</title>
<path fill="none" stroke="black" stroke-width="0.7" d="M283.5,-144C283.5,-144 206.5,-144 206.5,-144 200.5,-144 194.5,-138 194.5,-132 194.5,-132 194.5,-120 194.5,-120 194.5,-114 200.5,-108 206.5,-108 206.5,-108 283.5,-108 283.5,-108 289.5,-108 295.5,-114 295.5,-120 295.5,-120 295.5,-132 295.5,-132 295.5,-138 289.5,-144 283.5,-144"/>
<text text-anchor="middle" x="245" y="-122.9" font-family="sans-serif" font-size="12.00">IllegalOperation</text>
</g>
<!-- IllegalOperation&#45;&gt;Exception -->
<g id="edge14" class="edge"><title>IllegalOperation&#45;&gt;Exception</title>
<path fill="none" stroke="black" stroke-width="0.7" d="M208.595,-144.149C203.615,-146.98 198.622,-149.974 194,-153 180.453,-161.867 166.244,-172.696 154.264,-182.322"/>
<polygon fill="black" stroke="black" stroke-width="0.7" points="151.907,-179.727 146.362,-188.755 156.327,-185.156 151.907,-179.727"/>
</g>
<!-- DivisionByZero -->
<g id="node16" class="node"><title>DivisionByZero</title>
<path fill="none" stroke="black" stroke-width="0.7" d="M418,-198C418,-198 347,-198 347,-198 341,-198 335,-192 335,-186 335,-186 335,-174 335,-174 335,-168 341,-162 347,-162 347,-162 418,-162 418,-162 424,-162 430,-168 430,-174 430,-174 430,-186 430,-186 430,-192 424,-198 418,-198"/>
<text text-anchor="middle" x="382.5" y="-176.9" font-family="sans-serif" font-size="12.00">DivisionByZero</text>
</g>
<!-- DivisionByZero&#45;&gt;IllegalOperation -->
<g id="edge15" class="edge"><title>DivisionByZero&#45;&gt;IllegalOperation</title>
<path fill="none" stroke="black" stroke-width="0.7" d="M336.004,-161.869C324.831,-157.416 312.751,-152.602 301.178,-147.99"/>
<polygon fill="black" stroke="black" stroke-width="0.7" points="302.192,-144.626 291.607,-144.176 299.601,-151.129 302.192,-144.626"/>
</g>
<!-- IllegalReference -->
<g id="node17" class="node"><title>IllegalReference</title>
<path fill="none" stroke="black" stroke-width="0.7" d="M421,-144C421,-144 344,-144 344,-144 338,-144 332,-138 332,-132 332,-132 332,-120 332,-120 332,-114 338,-108 344,-108 344,-108 421,-108 421,-108 427,-108 433,-114 433,-120 433,-120 433,-132 433,-132 433,-138 427,-144 421,-144"/>
<text text-anchor="middle" x="382.5" y="-122.9" font-family="sans-serif" font-size="12.00">IllegalReference</text>
</g>
<!-- IllegalReference&#45;&gt;IllegalOperation -->
<g id="edge16" class="edge"><title>IllegalReference&#45;&gt;IllegalOperation</title>
<path fill="none" stroke="black" stroke-width="0.7" d="M331.814,-126C323.345,-126 314.47,-126 305.773,-126"/>
<polygon fill="black" stroke="black" stroke-width="0.7" points="305.68,-122.5 295.68,-126 305.68,-129.5 305.68,-122.5"/>
</g>
<!-- IllegalType -->
<g id="node18" class="node"><title>IllegalType</title>
<path fill="none" stroke="black" stroke-width="0.7" d="M408,-90C408,-90 357,-90 357,-90 351,-90 345,-84 345,-78 345,-78 345,-66 345,-66 345,-60 351,-54 357,-54 357,-54 408,-54 408,-54 414,-54 420,-60 420,-66 420,-66 420,-78 420,-78 420,-84 414,-90 408,-90"/>
<text text-anchor="middle" x="382.5" y="-68.9" font-family="sans-serif" font-size="12.00">IllegalType</text>
</g>
<!-- IllegalType&#45;&gt;IllegalOperation -->
<g id="edge17" class="edge"><title>IllegalType&#45;&gt;IllegalOperation</title>
<path fill="none" stroke="black" stroke-width="0.7" d="M344.832,-86.6132C331.33,-91.9939 315.726,-98.2126 300.962,-104.096"/>
<polygon fill="black" stroke="black" stroke-width="0.7" points="299.406,-100.949 291.412,-107.902 301.998,-107.451 299.406,-100.949"/>
</g>
<!-- IsNotAFunction -->
<g id="node19" class="node"><title>IsNotAFunction</title>
<path fill="none" stroke="black" stroke-width="0.7" d="M564,-144C564,-144 490,-144 490,-144 484,-144 478,-138 478,-132 478,-132 478,-120 478,-120 478,-114 484,-108 490,-108 490,-108 564,-108 564,-108 570,-108 576,-114 576,-120 576,-120 576,-132 576,-132 576,-138 570,-144 564,-144"/>
<text text-anchor="middle" x="527" y="-122.9" font-family="sans-serif" font-size="12.00">IsNotAFunction</text>
</g>
<!-- IsNotAFunction&#45;&gt;IllegalType -->
<g id="edge18" class="edge"><title>IsNotAFunction&#45;&gt;IllegalType</title>
<path fill="none" stroke="black" stroke-width="0.7" d="M478.153,-107.869C462.485,-101.931 445.118,-95.3501 429.583,-89.4631"/>
<polygon fill="black" stroke="black" stroke-width="0.7" points="430.77,-86.17 420.178,-85.8992 428.289,-92.7157 430.77,-86.17"/>
</g>
<!-- IsNotAMethod -->
<g id="node20" class="node"><title>IsNotAMethod</title>
<path fill="none" stroke="black" stroke-width="0.7" d="M561,-90C561,-90 493,-90 493,-90 487,-90 481,-84 481,-78 481,-78 481,-66 481,-66 481,-60 487,-54 493,-54 493,-54 561,-54 561,-54 567,-54 573,-60 573,-66 573,-66 573,-78 573,-78 573,-84 567,-90 561,-90"/>
<text text-anchor="middle" x="527" y="-68.9" font-family="sans-serif" font-size="12.00">IsNotAMethod</text>
</g>
<!-- IsNotAMethod&#45;&gt;IllegalType -->
<g id="edge19" class="edge"><title>IsNotAMethod&#45;&gt;IllegalType</title>
<path fill="none" stroke="black" stroke-width="0.7" d="M480.912,-72C464.859,-72 446.748,-72 430.536,-72"/>
<polygon fill="black" stroke="black" stroke-width="0.7" points="430.197,-68.5001 420.197,-72 430.197,-75.5001 430.197,-68.5001"/>
</g>
<!-- OperatorNotFound -->
<g id="node21" class="node"><title>OperatorNotFound</title>
<path fill="none" stroke="black" stroke-width="0.7" d="M573,-36C573,-36 481,-36 481,-36 475,-36 469,-30 469,-24 469,-24 469,-12 469,-12 469,-6 475,-0 481,-0 481,-0 573,-0 573,-0 579,-0 585,-6 585,-12 585,-12 585,-24 585,-24 585,-30 579,-36 573,-36"/>
<text text-anchor="middle" x="527" y="-14.9" font-family="sans-serif" font-size="12.00">OperatorNotFound</text>
</g>
<!-- OperatorNotFound&#45;&gt;IllegalType -->
<g id="edge20" class="edge"><title>OperatorNotFound&#45;&gt;IllegalType</title>
<path fill="none" stroke="black" stroke-width="0.7" d="M478.153,-36.1314C462.485,-42.0689 445.118,-48.6499 429.583,-54.5369"/>
<polygon fill="black" stroke="black" stroke-width="0.7" points="428.289,-51.2843 420.178,-58.1008 430.77,-57.83 428.289,-51.2843"/>
</g>
</g>
</svg>
