<?xml version="1.0" encoding="UTF-8" standalone="no"?>
<!DOCTYPE svg PUBLIC "-//W3C//DTD SVG 1.1//EN"
 "http://www.w3.org/Graphics/SVG/1.1/DTD/svg11.dtd">
<!-- Generated by graphviz version 2.38.0 (20140413.2041)
 -->
<!-- Title: graphname Pages: 1 -->
<svg width="517pt" height="188pt"
 viewBox="0.00 0.00 516.55 188.00" xmlns="http://www.w3.org/2000/svg" xmlns:xlink="http://www.w3.org/1999/xlink">
<g id="graph0" class="graph" transform="scale(1 1) rotate(0) translate(4 184)">
<title>graphname</title>
<polygon fill="white" stroke="none" points="-4,4 -4,-184 512.554,-184 512.554,4 -4,4"/>
<!-- Object -->
<g id="node1" class="node"><title>Object</title>
<ellipse fill="none" stroke="black" stroke-width="0.7" cx="250" cy="-18" rx="27" ry="18"/>
<text text-anchor="middle" x="250" y="-15.5" font-family="sans-serif" font-size="10.00">Object</text>
</g>
<!-- String -->
<g id="node2" class="node"><title>String</title>
<ellipse fill="none" stroke="black" stroke-width="0.7" cx="27" cy="-90" rx="27" ry="18"/>
<text text-anchor="middle" x="27" y="-87.5" font-family="sans-serif" font-size="10.00">String</text>
</g>
<!-- String&#45;&gt;Object -->
<g id="edge1" class="edge"><title>String&#45;&gt;Object</title>
<path fill="none" stroke="black" stroke-width="0.7" d="M48.0702,-78.3402C52.9102,-76.0914 58.0813,-73.844 63,-72 114.697,-52.6188 176.699,-36.362 214.716,-27.1528"/>
<polygon fill="black" stroke="black" stroke-width="0.7" points="215.863,-30.4771 224.774,-24.7455 214.234,-23.6693 215.863,-30.4771"/>
</g>
<!-- Char -->
<g id="node3" class="node"><title>Char</title>
<ellipse fill="none" stroke="black" stroke-width="0.7" cx="99" cy="-90" rx="27" ry="18"/>
<text text-anchor="middle" x="99" y="-87.5" font-family="sans-serif" font-size="10.00">Char</text>
</g>
<!-- Char&#45;&gt;Object -->
<g id="edge2" class="edge"><title>Char&#45;&gt;Object</title>
<path fill="none" stroke="black" stroke-width="0.7" d="M120.305,-78.8992C125.133,-76.6214 130.24,-74.2209 135,-72 163.414,-58.7439 195.863,-43.8077 219.031,-33.1781"/>
<polygon fill="black" stroke="black" stroke-width="0.7" points="220.722,-36.2532 228.353,-28.9036 217.804,-29.8902 220.722,-36.2532"/>
</g>
<!-- Integer -->
<g id="node4" class="node"><title>Integer</title>
<ellipse fill="none" stroke="black" stroke-width="0.7" cx="172" cy="-162" rx="27.8353" ry="18"/>
<text text-anchor="middle" x="172" y="-159.5" font-family="sans-serif" font-size="10.00">Integer</text>
</g>
<!-- Number -->
<g id="node5" class="node"><title>Number</title>
<ellipse fill="none" stroke="black" stroke-width="0.7" cx="173" cy="-90" rx="29.3664" ry="18"/>
<text text-anchor="middle" x="173" y="-87.5" font-family="sans-serif" font-size="10.00">Number</text>
</g>
<!-- Integer&#45;&gt;Number -->
<g id="edge3" class="edge"><title>Integer&#45;&gt;Number</title>
<path fill="none" stroke="black" stroke-width="0.7" d="M172.247,-143.697C172.357,-135.983 172.49,-126.712 172.613,-118.112"/>
<polygon fill="black" stroke="black" stroke-width="0.7" points="176.112,-118.153 172.756,-108.104 169.113,-118.053 176.112,-118.153"/>
</g>
<!-- Number&#45;&gt;Object -->
<g id="edge9" class="edge"><title>Number&#45;&gt;Object</title>
<path fill="none" stroke="black" stroke-width="0.7" d="M188.954,-74.496C199.94,-64.5095 214.705,-51.0859 226.963,-39.9424"/>
<polygon fill="black" stroke="black" stroke-width="0.7" points="229.546,-42.3244 234.591,-33.0078 224.838,-37.1448 229.546,-42.3244"/>
</g>
<!-- Real -->
<g id="node6" class="node"><title>Real</title>
<ellipse fill="none" stroke="black" stroke-width="0.7" cx="245" cy="-162" rx="27" ry="18"/>
<text text-anchor="middle" x="245" y="-159.5" font-family="sans-serif" font-size="10.00">Real</text>
</g>
<!-- Real&#45;&gt;Number -->
<g id="edge4" class="edge"><title>Real&#45;&gt;Number</title>
<path fill="none" stroke="black" stroke-width="0.7" d="M230.43,-146.834C220.414,-137.097 206.918,-123.976 195.526,-112.901"/>
<polygon fill="black" stroke="black" stroke-width="0.7" points="197.654,-110.088 188.044,-105.626 192.774,-115.107 197.654,-110.088"/>
</g>
<!-- Boolean -->
<g id="node7" class="node"><title>Boolean</title>
<ellipse fill="none" stroke="black" stroke-width="0.7" cx="250" cy="-90" rx="29.3664" ry="18"/>
<text text-anchor="middle" x="250" y="-87.5" font-family="sans-serif" font-size="10.00">Boolean</text>
</g>
<!-- Boolean&#45;&gt;Object -->
<g id="edge5" class="edge"><title>Boolean&#45;&gt;Object</title>
<path fill="none" stroke="black" stroke-width="0.7" d="M250,-71.6966C250,-63.9827 250,-54.7125 250,-46.1124"/>
<polygon fill="black" stroke="black" stroke-width="0.7" points="253.5,-46.1043 250,-36.1043 246.5,-46.1044 253.5,-46.1043"/>
</g>
<!-- Array -->
<g id="node8" class="node"><title>Array</title>
<ellipse fill="none" stroke="black" stroke-width="0.7" cx="324" cy="-90" rx="27" ry="18"/>
<text text-anchor="middle" x="324" y="-87.5" font-family="sans-serif" font-size="10.00">Array</text>
</g>
<!-- Array&#45;&gt;Object -->
<g id="edge6" class="edge"><title>Array&#45;&gt;Object</title>
<path fill="none" stroke="black" stroke-width="0.7" d="M309.025,-74.8345C298.493,-64.872 284.218,-51.3687 272.345,-40.1371"/>
<polygon fill="black" stroke="black" stroke-width="0.7" points="274.623,-37.4739 264.953,-33.1445 269.812,-42.5592 274.623,-37.4739"/>
</g>
<!-- Null -->
<g id="node9" class="node"><title>Null</title>
<ellipse fill="none" stroke="black" stroke-width="0.7" cx="356" cy="-162" rx="27" ry="18"/>
<text text-anchor="middle" x="356" y="-159.5" font-family="sans-serif" font-size="10.00">Null</text>
</g>
<!-- Void -->
<g id="node10" class="node"><title>Void</title>
<ellipse fill="none" stroke="black" stroke-width="0.7" cx="396" cy="-90" rx="27" ry="18"/>
<text text-anchor="middle" x="396" y="-87.5" font-family="sans-serif" font-size="10.00">Void</text>
</g>
<!-- Null&#45;&gt;Void -->
<g id="edge7" class="edge"><title>Null&#45;&gt;Void</title>
<path fill="none" stroke="black" stroke-width="0.7" d="M365.277,-144.765C370.174,-136.195 376.289,-125.494 381.771,-115.9"/>
<polygon fill="black" stroke="black" stroke-width="0.7" points="384.85,-117.566 386.773,-107.147 378.773,-114.093 384.85,-117.566"/>
</g>
<!-- Void&#45;&gt;Object -->
<g id="edge10" class="edge"><title>Void&#45;&gt;Object</title>
<path fill="none" stroke="black" stroke-width="0.7" d="M374.77,-78.8214C349.901,-66.8978 308.516,-47.0557 280.283,-33.5192"/>
<polygon fill="black" stroke="black" stroke-width="0.7" points="281.786,-30.3582 271.255,-29.1909 278.759,-36.6702 281.786,-30.3582"/>
</g>
<!-- Undefined -->
<g id="node11" class="node"><title>Undefined</title>
<ellipse fill="none" stroke="black" stroke-width="0.7" cx="436" cy="-162" rx="34.9638" ry="18"/>
<text text-anchor="middle" x="436" y="-159.5" font-family="sans-serif" font-size="10.00">Undefined</text>
</g>
<!-- Undefined&#45;&gt;Void -->
<g id="edge8" class="edge"><title>Undefined&#45;&gt;Void</title>
<path fill="none" stroke="black" stroke-width="0.7" d="M426.521,-144.411C421.669,-135.921 415.663,-125.41 410.265,-115.964"/>
<polygon fill="black" stroke="black" stroke-width="0.7" points="413.136,-113.934 405.136,-106.988 407.059,-117.407 413.136,-113.934"/>
</g>
<!-- Exception -->
<g id="node12" class="node"><title>Exception</title>
<ellipse fill="none" stroke="black" stroke-width="0.7" cx="475" cy="-90" rx="33.6077" ry="18"/>
<text text-anchor="middle" x="475" y="-87.5" font-family="sans-serif" font-size="10.00">Exception</text>
</g>
<!-- Exception&#45;&gt;Object -->
<g id="edge11" class="edge"><title>Exception&#45;&gt;Object</title>
<path fill="none" stroke="black" stroke-width="0.7" d="M449.223,-78.3584C443.584,-76.1569 437.62,-73.9245 432,-72 381.201,-54.6038 321.225,-37.8533 284.405,-27.992"/>
<polygon fill="black" stroke="black" stroke-width="0.7" points="285.224,-24.5883 274.661,-25.3984 283.424,-31.3528 285.224,-24.5883"/>
</g>
</g>
</svg>
