<?xml version="1.0" encoding="UTF-8" standalone="no"?>
<!DOCTYPE svg PUBLIC "-//W3C//DTD SVG 1.1//EN"
 "http://www.w3.org/Graphics/SVG/1.1/DTD/svg11.dtd">
<!-- Generated by graphviz version 2.38.0 (20140413.2041)
 -->
<!-- Title: graphname Pages: 1 -->
<svg width="529pt" height="188pt"
 viewBox="0.00 0.00 528.55 188.00" xmlns="http://www.w3.org/2000/svg" xmlns:xlink="http://www.w3.org/1999/xlink">
<g id="graph0" class="graph" transform="scale(1 1) rotate(0) translate(4 184)">
<title>graphname</title>
<polygon fill="white" stroke="none" points="-4,4 -4,-184 524.554,-184 524.554,4 -4,4"/>
<!-- Object -->
<g id="node1" class="node"><title>Object</title>
<ellipse fill="none" stroke="black" stroke-width="0.7" cx="250" cy="-18" rx="27" ry="18"/>
<text text-anchor="middle" x="250" y="-15.5" font-family="sans-serif" font-size="10.00">Object</text>
</g>
<!-- String -->
<g id="node2" class="node"><title>String</title>
<ellipse fill="none" stroke="black" stroke-width="0.7" cx="27" cy="-90" rx="27" ry="18"/>
<text text-anchor="middle" x="27" y="-87.5" font-family="sans-serif" font-size="10.00">String</text>
</g>
<!-- String&#45;&gt;Object -->
<g id="edge1" class="edge"><title>String&#45;&gt;Object</title>
<path fill="none" stroke="black" stroke-width="0.7" d="M48.0702,-78.3402C52.9102,-76.0914 58.0813,-73.844 63,-72 114.697,-52.6188 176.699,-36.362 214.716,-27.1528"/>
<polygon fill="black" stroke="black" stroke-width="0.7" points="215.863,-30.4771 224.774,-24.7455 214.234,-23.6693 215.863,-30.4771"/>
</g>
<!-- Char -->
<g id="node3" class="node"><title>Char</title>
<ellipse fill="none" stroke="black" stroke-width="0.7" cx="99" cy="-90" rx="27" ry="18"/>
<text text-anchor="middle" x="99" y="-87.5" font-family="sans-serif" font-size="10.00">Char</text>
</g>
<!-- Char&#45;&gt;Object -->
<g id="edge2" class="edge"><title>Char&#45;&gt;Object</title>
<path fill="none" stroke="black" stroke-width="0.7" d="M120.305,-78.8992C125.133,-76.6214 130.24,-74.2209 135,-72 163.414,-58.7439 195.863,-43.8077 219.031,-33.1781"/>
<polygon fill="black" stroke="black" stroke-width="0.7" points="220.722,-36.2532 228.353,-28.9036 217.804,-29.8902 220.722,-36.2532"/>
</g>
<!-- Integer -->
<g id="node4" class="node"><title>Integer</title>
<ellipse fill="none" stroke="black" stroke-width="0.7" cx="137" cy="-162" rx="27.8353" ry="18"/>
<text text-anchor="middle" x="137" y="-159.5" font-family="sans-serif" font-size="10.00">Integer</text>
</g>
<!-- Number -->
<g id="node5" class="node"><title>Number</title>
<ellipse fill="none" stroke="black" stroke-width="0.7" cx="173" cy="-90" rx="29.3664" ry="18"/>
<text text-anchor="middle" x="173" y="-87.5" font-family="sans-serif" font-size="10.00">Number</text>
</g>
<!-- Integer&#45;&gt;Number -->
<g id="edge3" class="edge"><title>Integer&#45;&gt;Number</title>
<path fill="none" stroke="black" stroke-width="0.7" d="M145.35,-144.765C149.649,-136.404 154.992,-126.016 159.831,-116.606"/>
<polygon fill="black" stroke="black" stroke-width="0.7" points="162.985,-118.127 164.446,-107.633 156.76,-114.926 162.985,-118.127"/>
</g>
<!-- Number&#45;&gt;Object -->
<g id="edge10" class="edge"><title>Number&#45;&gt;Object</title>
<path fill="none" stroke="black" stroke-width="0.7" d="M188.954,-74.496C199.94,-64.5095 214.705,-51.0859 226.963,-39.9424"/>
<polygon fill="black" stroke="black" stroke-width="0.7" points="229.546,-42.3244 234.591,-33.0078 224.838,-37.1448 229.546,-42.3244"/>
</g>
<!-- Real -->
<g id="node6" class="node"><title>Real</title>
<ellipse fill="none" stroke="black" stroke-width="0.7" cx="210" cy="-162" rx="27" ry="18"/>
<text text-anchor="middle" x="210" y="-159.5" font-family="sans-serif" font-size="10.00">Real</text>
</g>
<!-- Real&#45;&gt;Number -->
<g id="edge4" class="edge"><title>Real&#45;&gt;Number</title>
<path fill="none" stroke="black" stroke-width="0.7" d="M201.418,-144.765C196.999,-136.404 191.508,-126.016 186.535,-116.606"/>
<polygon fill="black" stroke="black" stroke-width="0.7" points="189.559,-114.839 181.792,-107.633 183.371,-118.11 189.559,-114.839"/>
</g>
<!-- Boolean -->
<g id="node7" class="node"><title>Boolean</title>
<ellipse fill="none" stroke="black" stroke-width="0.7" cx="250" cy="-90" rx="29.3664" ry="18"/>
<text text-anchor="middle" x="250" y="-87.5" font-family="sans-serif" font-size="10.00">Boolean</text>
</g>
<!-- Boolean&#45;&gt;Object -->
<g id="edge5" class="edge"><title>Boolean&#45;&gt;Object</title>
<path fill="none" stroke="black" stroke-width="0.7" d="M250,-71.6966C250,-63.9827 250,-54.7125 250,-46.1124"/>
<polygon fill="black" stroke="black" stroke-width="0.7" points="253.5,-46.1043 250,-36.1043 246.5,-46.1044 253.5,-46.1043"/>
</g>
<!-- ArrayLike -->
<g id="node8" class="node"><title>ArrayLike</title>
<ellipse fill="none" stroke="black" stroke-width="0.7" cx="330" cy="-90" rx="32.9303" ry="18"/>
<text text-anchor="middle" x="330" y="-87.5" font-family="sans-serif" font-size="10.00">ArrayLike</text>
</g>
<!-- ArrayLike&#45;&gt;Object -->
<g id="edge6" class="edge"><title>ArrayLike&#45;&gt;Object</title>
<path fill="none" stroke="black" stroke-width="0.7" d="M313.034,-74.1548C301.596,-64.1467 286.347,-50.8035 273.712,-39.7481"/>
<polygon fill="black" stroke="black" stroke-width="0.7" points="275.684,-36.8226 265.853,-32.8716 271.074,-42.0907 275.684,-36.8226"/>
</g>
<!-- Array -->
<g id="node9" class="node"><title>Array</title>
<ellipse fill="none" stroke="black" stroke-width="0.7" cx="330" cy="-162" rx="27" ry="18"/>
<text text-anchor="middle" x="330" y="-159.5" font-family="sans-serif" font-size="10.00">Array</text>
</g>
<!-- Array&#45;&gt;ArrayLike -->
<g id="edge7" class="edge"><title>Array&#45;&gt;ArrayLike</title>
<path fill="none" stroke="black" stroke-width="0.7" d="M330,-143.697C330,-135.983 330,-126.712 330,-118.112"/>
<polygon fill="black" stroke="black" stroke-width="0.7" points="333.5,-118.104 330,-108.104 326.5,-118.104 333.5,-118.104"/>
</g>
<!-- Null -->
<g id="node10" class="node"><title>Null</title>
<ellipse fill="none" stroke="black" stroke-width="0.7" cx="405" cy="-162" rx="27" ry="18"/>
<text text-anchor="middle" x="405" y="-159.5" font-family="sans-serif" font-size="10.00">Null</text>
</g>
<!-- Void -->
<g id="node11" class="node"><title>Void</title>
<ellipse fill="none" stroke="black" stroke-width="0.7" cx="408" cy="-90" rx="27" ry="18"/>
<text text-anchor="middle" x="408" y="-87.5" font-family="sans-serif" font-size="10.00">Void</text>
</g>
<!-- Null&#45;&gt;Void -->
<g id="edge8" class="edge"><title>Null&#45;&gt;Void</title>
<path fill="none" stroke="black" stroke-width="0.7" d="M405.742,-143.697C406.072,-135.983 406.469,-126.712 406.838,-118.112"/>
<polygon fill="black" stroke="black" stroke-width="0.7" points="410.335,-118.245 407.267,-108.104 403.342,-117.945 410.335,-118.245"/>
</g>
<!-- Void&#45;&gt;Object -->
<g id="edge11" class="edge"><title>Void&#45;&gt;Object</title>
<path fill="none" stroke="black" stroke-width="0.7" d="M386.731,-78.8212C381.901,-76.5475 376.785,-74.1683 372,-72 341.361,-58.1149 306.091,-42.8717 281.379,-32.3114"/>
<polygon fill="black" stroke="black" stroke-width="0.7" points="282.703,-29.0711 272.131,-28.3676 279.957,-35.51 282.703,-29.0711"/>
</g>
<!-- Undefined -->
<g id="node12" class="node"><title>Undefined</title>
<ellipse fill="none" stroke="black" stroke-width="0.7" cx="485" cy="-162" rx="34.9638" ry="18"/>
<text text-anchor="middle" x="485" y="-159.5" font-family="sans-serif" font-size="10.00">Undefined</text>
</g>
<!-- Undefined&#45;&gt;Void -->
<g id="edge9" class="edge"><title>Undefined&#45;&gt;Void</title>
<path fill="none" stroke="black" stroke-width="0.7" d="M468.292,-145.811C457.335,-135.85 442.865,-122.696 430.848,-111.771"/>
<polygon fill="black" stroke="black" stroke-width="0.7" points="433.121,-109.107 423.367,-104.97 428.412,-114.286 433.121,-109.107"/>
</g>
<!-- Exception -->
<g id="node13" class="node"><title>Exception</title>
<ellipse fill="none" stroke="black" stroke-width="0.7" cx="487" cy="-90" rx="33.6077" ry="18"/>
<text text-anchor="middle" x="487" y="-87.5" font-family="sans-serif" font-size="10.00">Exception</text>
</g>
<!-- Exception&#45;&gt;Object -->
<g id="edge12" class="edge"><title>Exception&#45;&gt;Object</title>
<path fill="none" stroke="black" stroke-width="0.7" d="M461.247,-78.2872C455.606,-76.0902 449.636,-73.8776 444,-72 389.114,-53.7146 324.007,-36.8965 284.902,-27.3065"/>
<polygon fill="black" stroke="black" stroke-width="0.7" points="285.611,-23.8771 275.067,-24.9128 283.956,-30.6785 285.611,-23.8771"/>
</g>
</g>
</svg>
