<?xml version="1.0" encoding="UTF-8" standalone="no"?>
<!DOCTYPE svg PUBLIC "-//W3C//DTD SVG 1.1//EN"
 "http://www.w3.org/Graphics/SVG/1.1/DTD/svg11.dtd">
<!-- Generated by graphviz version 2.38.0 (20140413.2041)
 -->
<!-- Title: graphname Pages: 1 -->
<svg width="537pt" height="332pt"
 viewBox="0.00 0.00 536.84 332.00" xmlns="http://www.w3.org/2000/svg" xmlns:xlink="http://www.w3.org/1999/xlink">
<g id="graph0" class="graph" transform="scale(1 1) rotate(0) translate(4 328)">
<title>graphname</title>
<polygon fill="white" stroke="none" points="-4,4 -4,-328 532.839,-328 532.839,4 -4,4"/>
<!-- Object -->
<g id="node1" class="node"><title>Object</title>
<ellipse fill="none" stroke="black" stroke-width="0.7" cx="269.916" cy="-18" rx="27" ry="18"/>
<text text-anchor="middle" x="269.916" y="-15.5" font-family="sans-serif" font-size="10.00">Object</text>
</g>
<!-- Exception -->
<g id="node2" class="node"><title>Exception</title>
<ellipse fill="none" stroke="black" stroke-width="0.7" cx="269.916" cy="-90" rx="33.6077" ry="18"/>
<text text-anchor="middle" x="269.916" y="-87.5" font-family="sans-serif" font-size="10.00">Exception</text>
</g>
<!-- Exception&#45;&gt;Object -->
<g id="edge1" class="edge"><title>Exception&#45;&gt;Object</title>
<path fill="none" stroke="black" stroke-width="0.7" d="M269.916,-71.6966C269.916,-63.9827 269.916,-54.7125 269.916,-46.1124"/>
<polygon fill="black" stroke="black" stroke-width="0.7" points="273.416,-46.1043 269.916,-36.1043 266.416,-46.1044 273.416,-46.1043"/>
</g>
<!-- IllegalOperation -->
<g id="node3" class="node"><title>IllegalOperation</title>
<ellipse fill="none" stroke="black" stroke-width="0.7" cx="158.916" cy="-162" rx="49.3954" ry="18"/>
<text text-anchor="middle" x="158.916" y="-159.5" font-family="sans-serif" font-size="10.00">IllegalOperation</text>
</g>
<!-- IllegalOperation&#45;&gt;Exception -->
<g id="edge2" class="edge"><title>IllegalOperation&#45;&gt;Exception</title>
<path fill="none" stroke="black" stroke-width="0.7" d="M182.456,-146.155C199.41,-135.463 222.399,-120.965 240.553,-109.517"/>
<polygon fill="black" stroke="black" stroke-width="0.7" points="242.438,-112.466 249.029,-104.172 238.704,-106.545 242.438,-112.466"/>
</g>
<!-- IllegalContext -->
<g id="node4" class="node"><title>IllegalContext</title>
<ellipse fill="none" stroke="black" stroke-width="0.7" cx="269.916" cy="-162" rx="43.6222" ry="18"/>
<text text-anchor="middle" x="269.916" y="-159.5" font-family="sans-serif" font-size="10.00">IllegalContext</text>
</g>
<!-- IllegalContext&#45;&gt;Exception -->
<g id="edge3" class="edge"><title>IllegalContext&#45;&gt;Exception</title>
<path fill="none" stroke="black" stroke-width="0.7" d="M269.916,-143.697C269.916,-135.983 269.916,-126.712 269.916,-118.112"/>
<polygon fill="black" stroke="black" stroke-width="0.7" points="273.416,-118.104 269.916,-108.104 266.416,-118.104 273.416,-118.104"/>
</g>
<!-- IllegalArgument -->
<g id="node5" class="node"><title>IllegalArgument</title>
<ellipse fill="none" stroke="black" stroke-width="0.7" cx="380.916" cy="-162" rx="49.3954" ry="18"/>
<text text-anchor="middle" x="380.916" y="-159.5" font-family="sans-serif" font-size="10.00">IllegalArgument</text>
</g>
<!-- IllegalArgument&#45;&gt;Exception -->
<g id="edge4" class="edge"><title>IllegalArgument&#45;&gt;Exception</title>
<path fill="none" stroke="black" stroke-width="0.7" d="M357.375,-146.155C340.422,-135.463 317.432,-120.965 299.278,-109.517"/>
<polygon fill="black" stroke="black" stroke-width="0.7" points="301.128,-106.545 290.802,-104.172 297.394,-112.466 301.128,-106.545"/>
</g>
<!-- DivisionByZero -->
<g id="node6" class="node"><title>DivisionByZero</title>
<ellipse fill="none" stroke="black" stroke-width="0.7" cx="45.9157" cy="-234" rx="45.8316" ry="18"/>
<text text-anchor="middle" x="45.9157" y="-231.5" font-family="sans-serif" font-size="10.00">DivisionByZero</text>
</g>
<!-- DivisionByZero&#45;&gt;IllegalOperation -->
<g id="edge5" class="edge"><title>DivisionByZero&#45;&gt;IllegalOperation</title>
<path fill="none" stroke="black" stroke-width="0.7" d="M69.3294,-218.496C85.7735,-208.309 107.991,-194.546 126.186,-183.275"/>
<polygon fill="black" stroke="black" stroke-width="0.7" points="128.094,-186.21 134.752,-177.968 124.408,-180.259 128.094,-186.21"/>
</g>
<!-- UndeclaredVariable -->
<g id="node7" class="node"><title>UndeclaredVariable</title>
<ellipse fill="none" stroke="black" stroke-width="0.7" cx="119.916" cy="-306" rx="58.7329" ry="18"/>
<text text-anchor="middle" x="119.916" y="-303.5" font-family="sans-serif" font-size="10.00">UndeclaredVariable</text>
</g>
<!-- UndeclaredVariable&#45;&gt;IllegalOperation -->
<g id="edge6" class="edge"><title>UndeclaredVariable&#45;&gt;IllegalOperation</title>
<path fill="none" stroke="black" stroke-width="0.7" d="M122.803,-287.747C126.012,-269.675 131.705,-240.559 138.916,-216 141.504,-207.183 144.868,-197.742 148.096,-189.306"/>
<polygon fill="black" stroke="black" stroke-width="0.7" points="151.367,-190.551 151.768,-179.964 144.852,-187.99 151.367,-190.551"/>
</g>
<!-- IllegalReference -->
<g id="node8" class="node"><title>IllegalReference</title>
<ellipse fill="none" stroke="black" stroke-width="0.7" cx="198.916" cy="-234" rx="50.7503" ry="18"/>
<text text-anchor="middle" x="198.916" y="-231.5" font-family="sans-serif" font-size="10.00">IllegalReference</text>
</g>
<!-- IllegalReference&#45;&gt;IllegalOperation -->
<g id="edge7" class="edge"><title>IllegalReference&#45;&gt;IllegalOperation</title>
<path fill="none" stroke="black" stroke-width="0.7" d="M189.233,-216.055C184.516,-207.801 178.745,-197.701 173.509,-188.538"/>
<polygon fill="black" stroke="black" stroke-width="0.7" points="176.51,-186.735 168.509,-179.789 170.432,-190.208 176.51,-186.735"/>
</g>
<!-- IllegalType -->
<g id="node9" class="node"><title>IllegalType</title>
<ellipse fill="none" stroke="black" stroke-width="0.7" cx="328.916" cy="-234" rx="37.1717" ry="18"/>
<text text-anchor="middle" x="328.916" y="-231.5" font-family="sans-serif" font-size="10.00">IllegalType</text>
</g>
<!-- IllegalType&#45;&gt;IllegalOperation -->
<g id="edge8" class="edge"><title>IllegalType&#45;&gt;IllegalOperation</title>
<path fill="none" stroke="black" stroke-width="0.7" d="M301.602,-221.753C274.128,-210.441 231.431,-192.859 199.896,-179.874"/>
<polygon fill="black" stroke="black" stroke-width="0.7" points="201.077,-176.576 190.498,-176.004 198.412,-183.048 201.077,-176.576"/>
</g>
<!-- IsNotAFunction -->
<g id="node10" class="node"><title>IsNotAFunction</title>
<ellipse fill="none" stroke="black" stroke-width="0.7" cx="243.916" cy="-306" rx="47.1863" ry="18"/>
<text text-anchor="middle" x="243.916" y="-303.5" font-family="sans-serif" font-size="10.00">IsNotAFunction</text>
</g>
<!-- IsNotAFunction&#45;&gt;IllegalType -->
<g id="edge9" class="edge"><title>IsNotAFunction&#45;&gt;IllegalType</title>
<path fill="none" stroke="black" stroke-width="0.7" d="M262.78,-289.465C274.688,-279.658 290.226,-266.862 303.248,-256.138"/>
<polygon fill="black" stroke="black" stroke-width="0.7" points="305.483,-258.832 310.977,-249.773 301.033,-253.428 305.483,-258.832"/>
</g>
<!-- IsNotAMethod -->
<g id="node11" class="node"><title>IsNotAMethod</title>
<ellipse fill="none" stroke="black" stroke-width="0.7" cx="353.916" cy="-306" rx="44.978" ry="18"/>
<text text-anchor="middle" x="353.916" y="-303.5" font-family="sans-serif" font-size="10.00">IsNotAMethod</text>
</g>
<!-- IsNotAMethod&#45;&gt;IllegalType -->
<g id="edge10" class="edge"><title>IsNotAMethod&#45;&gt;IllegalType</title>
<path fill="none" stroke="black" stroke-width="0.7" d="M347.864,-288.055C345.008,-280.059 341.534,-270.331 338.344,-261.4"/>
<polygon fill="black" stroke="black" stroke-width="0.7" points="341.571,-260.029 334.912,-251.789 334.979,-262.384 341.571,-260.029"/>
</g>
<!-- OperatorNotFound -->
<g id="node12" class="node"><title>OperatorNotFound</title>
<ellipse fill="none" stroke="black" stroke-width="0.7" cx="472.916" cy="-306" rx="55.8461" ry="18"/>
<text text-anchor="middle" x="472.916" y="-303.5" font-family="sans-serif" font-size="10.00">OperatorNotFound</text>
</g>
<!-- OperatorNotFound&#45;&gt;IllegalType -->
<g id="edge11" class="edge"><title>OperatorNotFound&#45;&gt;IllegalType</title>
<path fill="none" stroke="black" stroke-width="0.7" d="M443.428,-290.666C420.328,-279.436 388.133,-263.786 363.761,-251.939"/>
<polygon fill="black" stroke="black" stroke-width="0.7" points="365.032,-248.665 354.508,-247.441 361.972,-254.961 365.032,-248.665"/>
</g>
</g>
</svg>
