<?xml version="1.0" encoding="UTF-8" standalone="no"?>
<!DOCTYPE svg PUBLIC "-//W3C//DTD SVG 1.1//EN"
 "http://www.w3.org/Graphics/SVG/1.1/DTD/svg11.dtd">
<!-- Generated by graphviz version 2.38.0 (20140413.2041)
 -->
<!-- Title: graphname Pages: 1 -->
<svg width="183pt" height="277pt"
 viewBox="0.00 0.00 183.17 276.64" xmlns="http://www.w3.org/2000/svg" xmlns:xlink="http://www.w3.org/1999/xlink">
<g id="graph0" class="graph" transform="scale(1 1) rotate(0) translate(4 272.645)">
<title>graphname</title>
<polygon fill="white" stroke="none" points="-4,4 -4,-272.645 179.169,-272.645 179.169,4 -4,4"/>
<!-- data -->
<g id="node1" class="node"><title>data</title>
<path fill="none" stroke="black" stroke-width="0.7" d="M103.392,-118.785C103.392,-118.785 73.3923,-118.785 73.3923,-118.785 67.3923,-118.785 61.3923,-112.785 61.3923,-106.785 61.3923,-106.785 61.3923,-94.7846 61.3923,-94.7846 61.3923,-88.7846 67.3923,-82.7846 73.3923,-82.7846 73.3923,-82.7846 103.392,-82.7846 103.392,-82.7846 109.392,-82.7846 115.392,-88.7846 115.392,-94.7846 115.392,-94.7846 115.392,-106.785 115.392,-106.785 115.392,-112.785 109.392,-118.785 103.392,-118.785"/>
<text text-anchor="middle" x="88.3923" y="-97.6846" font-family="sans-serif" font-size="12.00">data</text>
</g>
<!-- x -->
<g id="node5" class="node"><title>x</title>
<ellipse fill="none" stroke="black" stroke-width="0.7" cx="23.3923" cy="-23.3923" rx="23.2851" ry="23.2851"/>
<text text-anchor="middle" x="23.3923" y="-20.2923" font-family="sans-serif" font-size="12.00">x: 1</text>
</g>
<!-- data&#45;&gt;x -->
<g id="edge4" class="edge"><title>data&#45;&gt;x</title>
<path fill="none" stroke="black" stroke-width="0.7" d="M73.6428,-82.6769C65.1431,-72.8183 54.3068,-60.2495 44.8748,-49.3094"/>
<polygon fill="black" stroke="black" stroke-width="0.7" points="47.4891,-46.9816 38.3084,-41.6933 42.1874,-51.5525 47.4891,-46.9816"/>
</g>
<!-- y -->
<g id="node6" class="node"><title>y</title>
<ellipse fill="none" stroke="black" stroke-width="0.7" cx="88.3923" cy="-23.3923" rx="23.2851" ry="23.2851"/>
<text text-anchor="middle" x="88.3923" y="-20.2923" font-family="sans-serif" font-size="12.00">y: 2</text>
</g>
<!-- data&#45;&gt;y -->
<g id="edge5" class="edge"><title>data&#45;&gt;y</title>
<path fill="none" stroke="black" stroke-width="0.7" d="M88.3923,-82.6769C88.3923,-75.0577 88.3923,-65.8198 88.3923,-56.966"/>
<polygon fill="black" stroke="black" stroke-width="0.7" points="91.8924,-56.8689 88.3923,-46.8689 84.8924,-56.8689 91.8924,-56.8689"/>
</g>
<!-- z -->
<g id="node7" class="node"><title>z</title>
<ellipse fill="none" stroke="black" stroke-width="0.7" cx="152.392" cy="-23.3923" rx="22.5556" ry="22.5556"/>
<text text-anchor="middle" x="152.392" y="-20.2923" font-family="sans-serif" font-size="12.00">z: 3</text>
</g>
<!-- data&#45;&gt;z -->
<g id="edge6" class="edge"><title>data&#45;&gt;z</title>
<path fill="none" stroke="black" stroke-width="0.7" d="M102.915,-82.6769C111.403,-72.6784 122.257,-59.8924 131.635,-48.8449"/>
<polygon fill="black" stroke="black" stroke-width="0.7" points="134.344,-51.0612 138.148,-41.1726 129.008,-46.5311 134.344,-51.0612"/>
</g>
<!-- original -->
<g id="node2" class="node"><title>original</title>
<path fill="none" stroke="black" stroke-width="0.7" d="M68.3923,-268.645C68.3923,-268.645 36.3923,-268.645 36.3923,-268.645 30.3923,-268.645 24.3923,-262.645 24.3923,-256.645 24.3923,-256.645 24.3923,-244.645 24.3923,-244.645 24.3923,-238.645 30.3923,-232.645 36.3923,-232.645 36.3923,-232.645 68.3923,-232.645 68.3923,-232.645 74.3923,-232.645 80.3923,-238.645 80.3923,-244.645 80.3923,-244.645 80.3923,-256.645 80.3923,-256.645 80.3923,-262.645 74.3923,-268.645 68.3923,-268.645"/>
<text text-anchor="middle" x="52.3923" y="-247.545" font-family="sans-serif" font-size="12.00">original</text>
</g>
<!-- obj -->
<g id="node4" class="node"><title>obj</title>
<ellipse fill="none" stroke="black" stroke-width="0.7" cx="88.3923" cy="-175.715" rx="20.8602" ry="20.8602"/>
<text text-anchor="middle" x="88.3923" y="-172.615" font-family="sans-serif" font-size="12.00">obj</text>
</g>
<!-- original&#45;&gt;obj -->
<g id="edge1" class="edge"><title>original&#45;&gt;obj</title>
<path fill="none" stroke="black" stroke-width="0.7" d="M60.9238,-232.361C65.1031,-223.895 70.2343,-213.5 74.926,-203.995"/>
<polygon fill="black" stroke="black" stroke-width="0.7" points="78.1317,-205.408 79.4197,-194.892 71.8548,-202.309 78.1317,-205.408"/>
</g>
<!-- copy -->
<g id="node3" class="node"><title>copy</title>
<path fill="none" stroke="black" stroke-width="0.7" d="M140.392,-268.645C140.392,-268.645 110.392,-268.645 110.392,-268.645 104.392,-268.645 98.3923,-262.645 98.3923,-256.645 98.3923,-256.645 98.3923,-244.645 98.3923,-244.645 98.3923,-238.645 104.392,-232.645 110.392,-232.645 110.392,-232.645 140.392,-232.645 140.392,-232.645 146.392,-232.645 152.392,-238.645 152.392,-244.645 152.392,-244.645 152.392,-256.645 152.392,-256.645 152.392,-262.645 146.392,-268.645 140.392,-268.645"/>
<text text-anchor="middle" x="125.392" y="-247.545" font-family="sans-serif" font-size="12.00">copy</text>
</g>
<!-- copy&#45;&gt;obj -->
<g id="edge2" class="edge"><title>copy&#45;&gt;obj</title>
<path fill="none" stroke="black" stroke-width="0.7" d="M116.624,-232.361C112.296,-223.831 106.976,-213.344 102.125,-203.782"/>
<polygon fill="black" stroke="black" stroke-width="0.7" points="105.13,-201.97 97.4842,-194.636 98.8874,-205.137 105.13,-201.97"/>
</g>
<!-- obj&#45;&gt;data -->
<g id="edge3" class="edge"><title>obj&#45;&gt;data</title>
<path fill="none" stroke="black" stroke-width="0.7" d="M88.3923,-154.4C88.3923,-146.576 88.3923,-137.509 88.3923,-129.13"/>
<polygon fill="black" stroke="black" stroke-width="0.7" points="91.8924,-129.028 88.3923,-119.028 84.8924,-129.028 91.8924,-129.028"/>
</g>
</g>
</svg>
