<?xml version="1.0" encoding="UTF-8" standalone="no"?>
<!DOCTYPE svg PUBLIC "-//W3C//DTD SVG 1.1//EN"
 "http://www.w3.org/Graphics/SVG/1.1/DTD/svg11.dtd">
<!-- Generated by graphviz version 2.38.0 (20140413.2041)
 -->
<!-- Title: graphname Pages: 1 -->
<svg width="438pt" height="260pt"
 viewBox="0.00 0.00 437.81 260.00" xmlns="http://www.w3.org/2000/svg" xmlns:xlink="http://www.w3.org/1999/xlink">
<g id="graph0" class="graph" transform="scale(1 1) rotate(0) translate(4 256)">
<title>graphname</title>
<polygon fill="white" stroke="none" points="-4,4 -4,-256 433.81,-256 433.81,4 -4,4"/>
<!-- Collection -->
<g id="node1" class="node"><title>Collection</title>
<ellipse fill="none" stroke="black" stroke-width="0.7" cx="234" cy="-90" rx="34.2855" ry="18"/>
<text text-anchor="middle" x="234" y="-87.5" font-family="sans-serif" font-size="10.00">Collection</text>
</g>
<!-- Object -->
<g id="node2" class="node"><title>Object</title>
<ellipse fill="none" stroke="black" stroke-width="0.7" cx="234" cy="-18" rx="27" ry="18"/>
<text text-anchor="middle" x="234" y="-15.5" font-family="sans-serif" font-size="10.00">Object</text>
</g>
<!-- Collection&#45;&gt;Object -->
<g id="edge1" class="edge"><title>Collection&#45;&gt;Object</title>
<path fill="none" stroke="black" stroke-width="0.7" d="M234,-71.6966C234,-63.9827 234,-54.7125 234,-46.1124"/>
<polygon fill="black" stroke="black" stroke-width="0.7" points="237.5,-46.1043 234,-36.1043 230.5,-46.1044 237.5,-46.1043"/>
</g>
<!-- MutableCollection -->
<g id="node3" class="node"><title>MutableCollection</title>
<ellipse fill="none" stroke="black" stroke-width="0.7" cx="234" cy="-162" rx="54.3144" ry="18"/>
<text text-anchor="middle" x="234" y="-159.5" font-family="sans-serif" font-size="10.00">MutableCollection</text>
</g>
<!-- MutableCollection&#45;&gt;Collection -->
<g id="edge2" class="edge"><title>MutableCollection&#45;&gt;Collection</title>
<path fill="none" stroke="black" stroke-width="0.7" d="M234,-143.697C234,-135.983 234,-126.712 234,-118.112"/>
<polygon fill="black" stroke="black" stroke-width="0.7" points="237.5,-118.104 234,-108.104 230.5,-118.104 237.5,-118.104"/>
</g>
<!-- IndexedCollection -->
<g id="node4" class="node"><title>IndexedCollection</title>
<ellipse fill="none" stroke="black" stroke-width="0.7" cx="108" cy="-162" rx="54.3144" ry="18"/>
<text text-anchor="middle" x="108" y="-159.5" font-family="sans-serif" font-size="10.00">IndexedCollection</text>
</g>
<!-- IndexedCollection&#45;&gt;Collection -->
<g id="edge3" class="edge"><title>IndexedCollection&#45;&gt;Collection</title>
<path fill="none" stroke="black" stroke-width="0.7" d="M134.721,-146.155C154.48,-135.178 181.462,-120.188 202.309,-108.606"/>
<polygon fill="black" stroke="black" stroke-width="0.7" points="204.077,-111.628 211.118,-103.712 200.677,-105.509 204.077,-111.628"/>
</g>
<!-- AssociativeCollection -->
<g id="node5" class="node"><title>AssociativeCollection</title>
<ellipse fill="none" stroke="black" stroke-width="0.7" cx="368" cy="-162" rx="61.6198" ry="18"/>
<text text-anchor="middle" x="368" y="-159.5" font-family="sans-serif" font-size="10.00">AssociativeCollection</text>
</g>
<!-- AssociativeCollection&#45;&gt;Collection -->
<g id="edge4" class="edge"><title>AssociativeCollection&#45;&gt;Collection</title>
<path fill="none" stroke="black" stroke-width="0.7" d="M339.254,-145.983C317.856,-134.805 288.629,-119.538 266.403,-107.927"/>
<polygon fill="black" stroke="black" stroke-width="0.7" points="267.833,-104.725 257.349,-103.197 264.592,-110.93 267.833,-104.725"/>
</g>
<!-- List -->
<g id="node6" class="node"><title>List</title>
<ellipse fill="none" stroke="black" stroke-width="0.7" cx="27" cy="-234" rx="27" ry="18"/>
<text text-anchor="middle" x="27" y="-231.5" font-family="sans-serif" font-size="10.00">List</text>
</g>
<!-- List&#45;&gt;MutableCollection -->
<g id="edge6" class="edge"><title>List&#45;&gt;MutableCollection</title>
<path fill="none" stroke="black" stroke-width="0.7" d="M48.104,-222.429C52.9424,-220.176 58.1041,-217.904 63,-216 102.68,-200.57 148.854,-186.479 183.212,-176.711"/>
<polygon fill="black" stroke="black" stroke-width="0.7" points="184.348,-180.027 193.024,-173.947 182.45,-173.289 184.348,-180.027"/>
</g>
<!-- List&#45;&gt;IndexedCollection -->
<g id="edge5" class="edge"><title>List&#45;&gt;IndexedCollection</title>
<path fill="none" stroke="black" stroke-width="0.7" d="M43.003,-219.17C54.0755,-209.601 69.0609,-196.651 81.8524,-185.597"/>
<polygon fill="black" stroke="black" stroke-width="0.7" points="84.2012,-188.193 89.4789,-179.006 79.6242,-182.896 84.2012,-188.193"/>
</g>
<!-- Map -->
<g id="node7" class="node"><title>Map</title>
<ellipse fill="none" stroke="black" stroke-width="0.7" cx="315" cy="-234" rx="27" ry="18"/>
<text text-anchor="middle" x="315" y="-231.5" font-family="sans-serif" font-size="10.00">Map</text>
</g>
<!-- Map&#45;&gt;MutableCollection -->
<g id="edge8" class="edge"><title>Map&#45;&gt;MutableCollection</title>
<path fill="none" stroke="black" stroke-width="0.7" d="M298.997,-219.17C287.925,-209.601 272.939,-196.651 260.148,-185.597"/>
<polygon fill="black" stroke="black" stroke-width="0.7" points="262.376,-182.896 252.521,-179.006 257.799,-188.193 262.376,-182.896"/>
</g>
<!-- Map&#45;&gt;AssociativeCollection -->
<g id="edge7" class="edge"><title>Map&#45;&gt;AssociativeCollection</title>
<path fill="none" stroke="black" stroke-width="0.7" d="M326.762,-217.465C333.272,-208.867 341.522,-197.97 348.93,-188.187"/>
<polygon fill="black" stroke="black" stroke-width="0.7" points="351.911,-190.047 355.157,-179.962 346.331,-185.822 351.911,-190.047"/>
</g>
<!-- Queue -->
<g id="node8" class="node"><title>Queue</title>
<ellipse fill="none" stroke="black" stroke-width="0.7" cx="99" cy="-234" rx="27" ry="18"/>
<text text-anchor="middle" x="99" y="-231.5" font-family="sans-serif" font-size="10.00">Queue</text>
</g>
<!-- Queue&#45;&gt;MutableCollection -->
<g id="edge9" class="edge"><title>Queue&#45;&gt;MutableCollection</title>
<path fill="none" stroke="black" stroke-width="0.7" d="M119.798,-222.216C140.26,-211.606 171.953,-195.173 196.765,-182.307"/>
<polygon fill="black" stroke="black" stroke-width="0.7" points="198.633,-185.281 205.9,-177.57 195.411,-179.067 198.633,-185.281"/>
</g>
<!-- Queue&#45;&gt;IndexedCollection -->
<g id="edge10" class="edge"><title>Queue&#45;&gt;IndexedCollection</title>
<path fill="none" stroke="black" stroke-width="0.7" d="M101.179,-216.055C102.17,-208.346 103.368,-199.027 104.482,-190.364"/>
<polygon fill="black" stroke="black" stroke-width="0.7" points="107.975,-190.64 105.779,-180.275 101.032,-189.747 107.975,-190.64"/>
</g>
<!-- Set -->
<g id="node9" class="node"><title>Set</title>
<ellipse fill="none" stroke="black" stroke-width="0.7" cx="387" cy="-234" rx="27" ry="18"/>
<text text-anchor="middle" x="387" y="-231.5" font-family="sans-serif" font-size="10.00">Set</text>
</g>
<!-- Set&#45;&gt;MutableCollection -->
<g id="edge11" class="edge"><title>Set&#45;&gt;MutableCollection</title>
<path fill="none" stroke="black" stroke-width="0.7" d="M365.706,-222.876C360.877,-220.6 355.768,-218.205 351,-216 325.499,-204.204 296.757,-191.18 274.143,-180.995"/>
<polygon fill="black" stroke="black" stroke-width="0.7" points="275.409,-177.727 264.853,-176.816 272.537,-184.111 275.409,-177.727"/>
</g>
<!-- Set&#45;&gt;AssociativeCollection -->
<g id="edge12" class="edge"><title>Set&#45;&gt;AssociativeCollection</title>
<path fill="none" stroke="black" stroke-width="0.7" d="M382.401,-216.055C380.285,-208.261 377.723,-198.822 375.35,-190.079"/>
<polygon fill="black" stroke="black" stroke-width="0.7" points="378.686,-189.009 372.689,-180.275 371.931,-190.843 378.686,-189.009"/>
</g>
<!-- Stack -->
<g id="node10" class="node"><title>Stack</title>
<ellipse fill="none" stroke="black" stroke-width="0.7" cx="171" cy="-234" rx="27" ry="18"/>
<text text-anchor="middle" x="171" y="-231.5" font-family="sans-serif" font-size="10.00">Stack</text>
</g>
<!-- Stack&#45;&gt;MutableCollection -->
<g id="edge13" class="edge"><title>Stack&#45;&gt;MutableCollection</title>
<path fill="none" stroke="black" stroke-width="0.7" d="M184.361,-218.155C192.42,-209.2 202.882,-197.576 212.122,-187.309"/>
<polygon fill="black" stroke="black" stroke-width="0.7" points="214.802,-189.563 218.89,-179.789 209.599,-184.881 214.802,-189.563"/>
</g>
<!-- Stack&#45;&gt;IndexedCollection -->
<g id="edge14" class="edge"><title>Stack&#45;&gt;IndexedCollection</title>
<path fill="none" stroke="black" stroke-width="0.7" d="M157.639,-218.155C149.58,-209.2 139.118,-197.576 129.878,-187.309"/>
<polygon fill="black" stroke="black" stroke-width="0.7" points="132.401,-184.881 123.11,-179.789 127.198,-189.563 132.401,-184.881"/>
</g>
<!-- Vector -->
<g id="node11" class="node"><title>Vector</title>
<ellipse fill="none" stroke="black" stroke-width="0.7" cx="243" cy="-234" rx="27" ry="18"/>
<text text-anchor="middle" x="243" y="-231.5" font-family="sans-serif" font-size="10.00">Vector</text>
</g>
<!-- Vector&#45;&gt;MutableCollection -->
<g id="edge15" class="edge"><title>Vector&#45;&gt;MutableCollection</title>
<path fill="none" stroke="black" stroke-width="0.7" d="M240.821,-216.055C239.83,-208.346 238.632,-199.027 237.518,-190.364"/>
<polygon fill="black" stroke="black" stroke-width="0.7" points="240.968,-189.747 236.221,-180.275 234.025,-190.64 240.968,-189.747"/>
</g>
<!-- Vector&#45;&gt;IndexedCollection -->
<g id="edge16" class="edge"><title>Vector&#45;&gt;IndexedCollection</title>
<path fill="none" stroke="black" stroke-width="0.7" d="M222.202,-222.216C201.74,-211.606 170.047,-195.173 145.235,-182.307"/>
<polygon fill="black" stroke="black" stroke-width="0.7" points="146.589,-179.067 136.1,-177.57 143.367,-185.281 146.589,-179.067"/>
</g>
</g>
</svg>
