<?xml version="1.0" encoding="UTF-8" standalone="no"?>
<!DOCTYPE svg PUBLIC "-//W3C//DTD SVG 1.1//EN"
 "http://www.w3.org/Graphics/SVG/1.1/DTD/svg11.dtd">
<!-- Generated by graphviz version 2.38.0 (20140413.2041)
 -->
<!-- Title: graphname Pages: 1 -->
<svg width="245pt" height="260pt"
 viewBox="0.00 0.00 245.25 260.00" xmlns="http://www.w3.org/2000/svg" xmlns:xlink="http://www.w3.org/1999/xlink">
<g id="graph0" class="graph" transform="scale(1 1) rotate(0) translate(4 256)">
<title>graphname</title>
<polygon fill="white" stroke="none" points="-4,4 -4,-256 241.255,-256 241.255,4 -4,4"/>
<!-- Animal -->
<g id="node1" class="node"><title>Animal</title>
<path fill="none" stroke="black" stroke-width="0.7" d="M151.553,-108C151.553,-108 121.553,-108 121.553,-108 115.553,-108 109.553,-102 109.553,-96 109.553,-96 109.553,-84 109.553,-84 109.553,-78 115.553,-72 121.553,-72 121.553,-72 151.553,-72 151.553,-72 157.553,-72 163.553,-78 163.553,-84 163.553,-84 163.553,-96 163.553,-96 163.553,-102 157.553,-108 151.553,-108"/>
<text text-anchor="middle" x="136.553" y="-86.9" font-family="sans-serif" font-size="12.00">Animal</text>
</g>
<!-- eat -->
<g id="node2" class="node"><title>eat</title>
<ellipse fill="none" stroke="black" stroke-width="0.7" cx="136.553" cy="-18" rx="27" ry="18"/>
<text text-anchor="middle" x="136.553" y="-14.9" font-family="sans-serif" font-size="12.00">eat()</text>
</g>
<!-- Animal&#45;&gt;eat -->
<g id="edge1" class="edge"><title>Animal&#45;&gt;eat</title>
<path fill="none" stroke="black" stroke-width="0.7" d="M136.553,-71.6966C136.553,-63.9827 136.553,-54.7125 136.553,-46.1124"/>
<polygon fill="black" stroke="black" stroke-width="0.7" points="140.054,-46.1043 136.553,-36.1043 133.054,-46.1044 140.054,-46.1043"/>
</g>
<!-- Mammal -->
<g id="node3" class="node"><title>Mammal</title>
<path fill="none" stroke="black" stroke-width="0.7" d="M98.5534,-180C98.5534,-180 60.5534,-180 60.5534,-180 54.5534,-180 48.5534,-174 48.5534,-168 48.5534,-168 48.5534,-156 48.5534,-156 48.5534,-150 54.5534,-144 60.5534,-144 60.5534,-144 98.5534,-144 98.5534,-144 104.553,-144 110.553,-150 110.553,-156 110.553,-156 110.553,-168 110.553,-168 110.553,-174 104.553,-180 98.5534,-180"/>
<text text-anchor="middle" x="79.5534" y="-158.9" font-family="sans-serif" font-size="12.00">Mammal</text>
</g>
<!-- Mammal&#45;&gt;Animal -->
<g id="edge3" class="edge"><title>Mammal&#45;&gt;Animal</title>
<path fill="none" stroke="navy" stroke-width="0.7" stroke-dasharray="5,2" d="M93.6433,-143.697C100.477,-135.305 108.81,-125.07 116.309,-115.861"/>
<polygon fill="navy" stroke="navy" stroke-width="0.7" points="119.025,-118.069 122.626,-108.104 113.597,-113.649 119.025,-118.069"/>
</g>
<!-- drinkMilk -->
<g id="node4" class="node"><title>drinkMilk</title>
<ellipse fill="none" stroke="black" stroke-width="0.7" cx="45.5534" cy="-90" rx="45.6069" ry="18"/>
<text text-anchor="middle" x="45.5534" y="-86.9" font-family="sans-serif" font-size="12.00">drinkMilk()</text>
</g>
<!-- Mammal&#45;&gt;drinkMilk -->
<g id="edge2" class="edge"><title>Mammal&#45;&gt;drinkMilk</title>
<path fill="none" stroke="black" stroke-width="0.7" d="M71.1489,-143.697C67.2787,-135.728 62.6018,-126.1 58.3103,-117.264"/>
<polygon fill="black" stroke="black" stroke-width="0.7" points="61.3786,-115.57 53.8613,-108.104 55.0821,-118.629 61.3786,-115.57"/>
</g>
<!-- WingedAnimal -->
<g id="node5" class="node"><title>WingedAnimal</title>
<path fill="none" stroke="black" stroke-width="0.7" d="M210.553,-180C210.553,-180 140.553,-180 140.553,-180 134.553,-180 128.553,-174 128.553,-168 128.553,-168 128.553,-156 128.553,-156 128.553,-150 134.553,-144 140.553,-144 140.553,-144 210.553,-144 210.553,-144 216.553,-144 222.553,-150 222.553,-156 222.553,-156 222.553,-168 222.553,-168 222.553,-174 216.553,-180 210.553,-180"/>
<text text-anchor="middle" x="175.553" y="-158.9" font-family="sans-serif" font-size="12.00">WingedAnimal</text>
</g>
<!-- WingedAnimal&#45;&gt;Animal -->
<g id="edge5" class="edge"><title>WingedAnimal&#45;&gt;Animal</title>
<path fill="none" stroke="navy" stroke-width="0.7" stroke-dasharray="5,2" d="M165.913,-143.697C161.426,-135.644 155.995,-125.894 151.029,-116.982"/>
<polygon fill="navy" stroke="navy" stroke-width="0.7" points="154.008,-115.137 146.083,-108.104 147.893,-118.544 154.008,-115.137"/>
</g>
<!-- flap -->
<g id="node6" class="node"><title>flap</title>
<ellipse fill="none" stroke="black" stroke-width="0.7" cx="209.553" cy="-90" rx="27.9043" ry="18"/>
<text text-anchor="middle" x="209.553" y="-86.9" font-family="sans-serif" font-size="12.00">flap()</text>
</g>
<!-- WingedAnimal&#45;&gt;flap -->
<g id="edge4" class="edge"><title>WingedAnimal&#45;&gt;flap</title>
<path fill="none" stroke="black" stroke-width="0.7" d="M183.958,-143.697C187.886,-135.609 192.645,-125.812 196.988,-116.869"/>
<polygon fill="black" stroke="black" stroke-width="0.7" points="200.259,-118.147 201.48,-107.622 193.962,-115.088 200.259,-118.147"/>
</g>
<!-- Bat -->
<g id="node7" class="node"><title>Bat</title>
<path fill="none" stroke="black" stroke-width="0.7" d="M142.553,-252C142.553,-252 112.553,-252 112.553,-252 106.553,-252 100.553,-246 100.553,-240 100.553,-240 100.553,-228 100.553,-228 100.553,-222 106.553,-216 112.553,-216 112.553,-216 142.553,-216 142.553,-216 148.553,-216 154.553,-222 154.553,-228 154.553,-228 154.553,-240 154.553,-240 154.553,-246 148.553,-252 142.553,-252"/>
<text text-anchor="middle" x="127.553" y="-230.9" font-family="sans-serif" font-size="12.00">Bat</text>
</g>
<!-- Bat&#45;&gt;Mammal -->
<g id="edge6" class="edge"><title>Bat&#45;&gt;Mammal</title>
<path fill="none" stroke="navy" stroke-width="0.7" stroke-dasharray="5,2" d="M115.688,-215.697C110.05,-207.474 103.199,-197.483 96.9848,-188.421"/>
<polygon fill="navy" stroke="navy" stroke-width="0.7" points="99.824,-186.372 91.2821,-180.104 94.0509,-190.331 99.824,-186.372"/>
</g>
<!-- Bat&#45;&gt;WingedAnimal -->
<g id="edge7" class="edge"><title>Bat&#45;&gt;WingedAnimal</title>
<path fill="none" stroke="navy" stroke-width="0.7" stroke-dasharray="5,2" d="M139.419,-215.697C145.057,-207.474 151.908,-197.483 158.122,-188.421"/>
<polygon fill="navy" stroke="navy" stroke-width="0.7" points="161.056,-190.331 163.825,-180.104 155.283,-186.372 161.056,-190.331"/>
</g>
</g>
</svg>
