<?xml version="1.0" encoding="UTF-8" standalone="no"?>
<!DOCTYPE svg PUBLIC "-//W3C//DTD SVG 1.1//EN"
 "http://www.w3.org/Graphics/SVG/1.1/DTD/svg11.dtd">
<!-- Generated by graphviz version 2.38.0 (20140413.2041)
 -->
<!-- Title: graphname Pages: 1 -->
<svg width="507pt" height="260pt"
 viewBox="0.00 0.00 507.19 260.00" xmlns="http://www.w3.org/2000/svg" xmlns:xlink="http://www.w3.org/1999/xlink">
<g id="graph0" class="graph" transform="scale(1 1) rotate(0) translate(4 256)">
<title>graphname</title>
<polygon fill="white" stroke="none" points="-4,4 -4,-256 503.187,-256 503.187,4 -4,4"/>
<!-- Animal -->
<g id="node1" class="node"><title>Animal</title>
<path fill="none" stroke="black" stroke-width="0.7" d="M282.553,-108C282.553,-108 252.553,-108 252.553,-108 246.553,-108 240.553,-102 240.553,-96 240.553,-96 240.553,-84 240.553,-84 240.553,-78 246.553,-72 252.553,-72 252.553,-72 282.553,-72 282.553,-72 288.553,-72 294.553,-78 294.553,-84 294.553,-84 294.553,-96 294.553,-96 294.553,-102 288.553,-108 282.553,-108"/>
<text text-anchor="middle" x="267.553" y="-86.9" font-family="sans-serif" font-size="12.00">Animal</text>
</g>
<!-- eat -->
<g id="node2" class="node"><title>eat</title>
<ellipse fill="none" stroke="black" stroke-width="0.7" cx="267.553" cy="-18" rx="27" ry="18"/>
<text text-anchor="middle" x="267.553" y="-14.9" font-family="sans-serif" font-size="12.00">eat()</text>
</g>
<!-- Animal&#45;&gt;eat -->
<g id="edge1" class="edge"><title>Animal&#45;&gt;eat</title>
<path fill="none" stroke="black" stroke-width="0.7" d="M267.553,-71.6966C267.553,-63.9827 267.553,-54.7125 267.553,-46.1124"/>
<polygon fill="black" stroke="black" stroke-width="0.7" points="271.054,-46.1043 267.553,-36.1043 264.054,-46.1044 271.054,-46.1043"/>
</g>
<!-- Mammal -->
<g id="node3" class="node"><title>Mammal</title>
<path fill="none" stroke="black" stroke-width="0.7" d="M187.553,-180C187.553,-180 149.553,-180 149.553,-180 143.553,-180 137.553,-174 137.553,-168 137.553,-168 137.553,-156 137.553,-156 137.553,-150 143.553,-144 149.553,-144 149.553,-144 187.553,-144 187.553,-144 193.553,-144 199.553,-150 199.553,-156 199.553,-156 199.553,-168 199.553,-168 199.553,-174 193.553,-180 187.553,-180"/>
<text text-anchor="middle" x="168.553" y="-158.9" font-family="sans-serif" font-size="12.00">Mammal</text>
</g>
<!-- Mammal&#45;&gt;Animal -->
<g id="edge4" class="edge"><title>Mammal&#45;&gt;Animal</title>
<path fill="none" stroke="black" stroke-width="0.7" d="M192.772,-143.876C205.476,-134.893 221.218,-123.763 234.977,-114.034"/>
<polygon fill="black" stroke="black" stroke-width="0.7" points="237.098,-116.821 243.242,-108.19 233.056,-111.105 237.098,-116.821"/>
</g>
<!-- drinkMilk -->
<g id="node4" class="node"><title>drinkMilk</title>
<ellipse fill="none" stroke="black" stroke-width="0.7" cx="45.5534" cy="-90" rx="45.6069" ry="18"/>
<text text-anchor="middle" x="45.5534" y="-86.9" font-family="sans-serif" font-size="12.00">drinkMilk()</text>
</g>
<!-- Mammal&#45;&gt;drinkMilk -->
<g id="edge2" class="edge"><title>Mammal&#45;&gt;drinkMilk</title>
<path fill="none" stroke="black" stroke-width="0.7" d="M138.464,-143.876C120.495,-133.65 97.6355,-120.64 79.0877,-110.085"/>
<polygon fill="black" stroke="black" stroke-width="0.7" points="80.7915,-107.027 70.3692,-105.123 77.3291,-113.111 80.7915,-107.027"/>
</g>
<!-- getOffspring1 -->
<g id="node8" class="node"><title>getOffspring1</title>
<ellipse fill="none" stroke="red" stroke-width="0.7" stroke-dasharray="5,2" cx="165.553" cy="-90" rx="56.7683" ry="18"/>
<text text-anchor="middle" x="165.553" y="-86.9" font-family="sans-serif" font-size="12.00">getOffspring()</text>
</g>
<!-- Mammal&#45;&gt;getOffspring1 -->
<g id="edge3" class="edge"><title>Mammal&#45;&gt;getOffspring1</title>
<path fill="none" stroke="black" stroke-width="0.7" d="M167.812,-143.697C167.481,-135.983 167.084,-126.712 166.715,-118.112"/>
<polygon fill="black" stroke="black" stroke-width="0.7" points="170.212,-117.945 166.286,-108.104 163.218,-118.245 170.212,-117.945"/>
</g>
<!-- WingedAnimal -->
<g id="node5" class="node"><title>WingedAnimal</title>
<path fill="none" stroke="black" stroke-width="0.7" d="M338.553,-180C338.553,-180 268.553,-180 268.553,-180 262.553,-180 256.553,-174 256.553,-168 256.553,-168 256.553,-156 256.553,-156 256.553,-150 262.553,-144 268.553,-144 268.553,-144 338.553,-144 338.553,-144 344.553,-144 350.553,-150 350.553,-156 350.553,-156 350.553,-168 350.553,-168 350.553,-174 344.553,-180 338.553,-180"/>
<text text-anchor="middle" x="303.553" y="-158.9" font-family="sans-serif" font-size="12.00">WingedAnimal</text>
</g>
<!-- WingedAnimal&#45;&gt;Animal -->
<g id="edge7" class="edge"><title>WingedAnimal&#45;&gt;Animal</title>
<path fill="none" stroke="black" stroke-width="0.7" d="M294.655,-143.697C290.557,-135.728 285.605,-126.1 281.061,-117.264"/>
<polygon fill="black" stroke="black" stroke-width="0.7" points="284.036,-115.396 276.35,-108.104 277.811,-118.598 284.036,-115.396"/>
</g>
<!-- flap -->
<g id="node6" class="node"><title>flap</title>
<ellipse fill="none" stroke="black" stroke-width="0.7" cx="340.553" cy="-90" rx="27.9043" ry="18"/>
<text text-anchor="middle" x="340.553" y="-86.9" font-family="sans-serif" font-size="12.00">flap()</text>
</g>
<!-- WingedAnimal&#45;&gt;flap -->
<g id="edge5" class="edge"><title>WingedAnimal&#45;&gt;flap</title>
<path fill="none" stroke="black" stroke-width="0.7" d="M312.7,-143.697C317.083,-135.403 322.418,-125.311 327.241,-116.187"/>
<polygon fill="black" stroke="black" stroke-width="0.7" points="330.441,-117.621 332.02,-107.145 324.252,-114.35 330.441,-117.621"/>
</g>
<!-- getOffspring2 -->
<g id="node9" class="node"><title>getOffspring2</title>
<ellipse fill="none" stroke="red" stroke-width="0.7" stroke-dasharray="5,2" cx="442.553" cy="-90" rx="56.7683" ry="18"/>
<text text-anchor="middle" x="442.553" y="-86.9" font-family="sans-serif" font-size="12.00">getOffspring()</text>
</g>
<!-- WingedAnimal&#45;&gt;getOffspring2 -->
<g id="edge6" class="edge"><title>WingedAnimal&#45;&gt;getOffspring2</title>
<path fill="none" stroke="black" stroke-width="0.7" d="M337.557,-143.876C357.86,-133.651 383.689,-120.644 404.647,-110.089"/>
<polygon fill="black" stroke="black" stroke-width="0.7" points="406.241,-113.206 413.598,-105.582 403.093,-106.954 406.241,-113.206"/>
</g>
<!-- Bat -->
<g id="node7" class="node"><title>Bat</title>
<path fill="none" stroke="black" stroke-width="0.7" d="M232.553,-252C232.553,-252 202.553,-252 202.553,-252 196.553,-252 190.553,-246 190.553,-240 190.553,-240 190.553,-228 190.553,-228 190.553,-222 196.553,-216 202.553,-216 202.553,-216 232.553,-216 232.553,-216 238.553,-216 244.553,-222 244.553,-228 244.553,-228 244.553,-240 244.553,-240 244.553,-246 238.553,-252 232.553,-252"/>
<text text-anchor="middle" x="217.553" y="-230.9" font-family="sans-serif" font-size="12.00">Bat</text>
</g>
<!-- Bat&#45;&gt;Mammal -->
<g id="edge8" class="edge"><title>Bat&#45;&gt;Mammal</title>
<path fill="none" stroke="black" stroke-width="0.7" d="M205.441,-215.697C199.685,-207.474 192.692,-197.483 186.348,-188.421"/>
<polygon fill="black" stroke="black" stroke-width="0.7" points="189.128,-186.29 180.526,-180.104 183.394,-190.304 189.128,-186.29"/>
</g>
<!-- Bat&#45;&gt;WingedAnimal -->
<g id="edge9" class="edge"><title>Bat&#45;&gt;WingedAnimal</title>
<path fill="none" stroke="black" stroke-width="0.7" d="M238.812,-215.697C249.643,-206.881 262.971,-196.032 274.714,-186.474"/>
<polygon fill="black" stroke="black" stroke-width="0.7" points="276.993,-189.132 282.54,-180.104 272.574,-183.703 276.993,-189.132"/>
</g>
</g>
</svg>
