<?xml version="1.0" encoding="UTF-8" standalone="no"?>
<!DOCTYPE svg PUBLIC "-//W3C//DTD SVG 1.1//EN"
 "http://www.w3.org/Graphics/SVG/1.1/DTD/svg11.dtd">
<!-- Generated by graphviz version 2.38.0 (20140413.2041)
 -->
<!-- Title: graphname Pages: 1 -->
<svg width="134pt" height="332pt"
 viewBox="0.00 0.00 134.00 332.00" xmlns="http://www.w3.org/2000/svg" xmlns:xlink="http://www.w3.org/1999/xlink">
<g id="graph0" class="graph" transform="scale(1 1) rotate(0) translate(4 328)">
<title>graphname</title>
<polygon fill="white" stroke="none" points="-4,4 -4,-328 130,-328 130,4 -4,4"/>
<!-- A -->
<g id="node1" class="node"><title>A</title>
<path fill="none" stroke="black" stroke-width="0.7" d="M78,-36C78,-36 48,-36 48,-36 42,-36 36,-30 36,-24 36,-24 36,-12 36,-12 36,-6 42,-0 48,-0 48,-0 78,-0 78,-0 84,-0 90,-6 90,-12 90,-12 90,-24 90,-24 90,-30 84,-36 78,-36"/>
<text text-anchor="middle" x="63" y="-14.9" font-family="sans-serif" font-size="12.00">A</text>
</g>
<!-- B -->
<g id="node2" class="node"><title>B</title>
<path fill="none" stroke="black" stroke-width="0.7" d="M42,-108C42,-108 12,-108 12,-108 6,-108 0,-102 0,-96 0,-96 0,-84 0,-84 0,-78 6,-72 12,-72 12,-72 42,-72 42,-72 48,-72 54,-78 54,-84 54,-84 54,-96 54,-96 54,-102 48,-108 42,-108"/>
<text text-anchor="middle" x="27" y="-86.9" font-family="sans-serif" font-size="12.00">B</text>
</g>
<!-- B&#45;&gt;A -->
<g id="edge6" class="edge"><title>B&#45;&gt;A</title>
<path fill="none" stroke="black" stroke-width="0.7" d="M35.8989,-71.6966C39.9968,-63.7284 44.9488,-54.0995 49.4927,-45.2641"/>
<polygon fill="black" stroke="black" stroke-width="0.7" points="52.7425,-46.598 54.2035,-36.1043 46.5174,-43.3965 52.7425,-46.598"/>
</g>
<!-- C -->
<g id="node3" class="node"><title>C</title>
<path fill="none" stroke="black" stroke-width="0.7" d="M46,-180C46,-180 16,-180 16,-180 10,-180 4,-174 4,-168 4,-168 4,-156 4,-156 4,-150 10,-144 16,-144 16,-144 46,-144 46,-144 52,-144 58,-150 58,-156 58,-156 58,-168 58,-168 58,-174 52,-180 46,-180"/>
<text text-anchor="middle" x="31" y="-158.9" font-family="sans-serif" font-size="12.00">C</text>
</g>
<!-- C&#45;&gt;B -->
<g id="edge5" class="edge"><title>C&#45;&gt;B</title>
<path fill="none" stroke="black" stroke-width="0.7" d="M30.0112,-143.697C29.5704,-135.983 29.0407,-126.712 28.5493,-118.112"/>
<polygon fill="black" stroke="black" stroke-width="0.7" points="32.0423,-117.888 27.9774,-108.104 25.0537,-118.288 32.0423,-117.888"/>
</g>
<!-- D -->
<g id="node4" class="node"><title>D</title>
<path fill="none" stroke="black" stroke-width="0.7" d="M114,-108C114,-108 84,-108 84,-108 78,-108 72,-102 72,-96 72,-96 72,-84 72,-84 72,-78 78,-72 84,-72 84,-72 114,-72 114,-72 120,-72 126,-78 126,-84 126,-84 126,-96 126,-96 126,-102 120,-108 114,-108"/>
<text text-anchor="middle" x="99" y="-86.9" font-family="sans-serif" font-size="12.00">D</text>
</g>
<!-- D&#45;&gt;A -->
<g id="edge3" class="edge"><title>D&#45;&gt;A</title>
<path fill="none" stroke="black" stroke-width="0.7" d="M90.1011,-71.6966C86.0032,-63.7284 81.0512,-54.0995 76.5073,-45.2641"/>
<polygon fill="black" stroke="black" stroke-width="0.7" points="79.4826,-43.3965 71.7965,-36.1043 73.2575,-46.598 79.4826,-43.3965"/>
</g>
<!-- E -->
<g id="node5" class="node"><title>E</title>
<path fill="none" stroke="black" stroke-width="0.7" d="M73,-252C73,-252 43,-252 43,-252 37,-252 31,-246 31,-240 31,-240 31,-228 31,-228 31,-222 37,-216 43,-216 43,-216 73,-216 73,-216 79,-216 85,-222 85,-228 85,-228 85,-240 85,-240 85,-246 79,-252 73,-252"/>
<text text-anchor="middle" x="58" y="-230.9" font-family="sans-serif" font-size="12.00">E</text>
</g>
<!-- E&#45;&gt;C -->
<g id="edge4" class="edge"><title>E&#45;&gt;C</title>
<path fill="none" stroke="black" stroke-width="0.7" d="M51.3258,-215.697C48.2851,-207.813 44.6173,-198.304 41.2393,-189.546"/>
<polygon fill="black" stroke="black" stroke-width="0.7" points="44.4617,-188.175 37.5974,-180.104 37.9307,-190.694 44.4617,-188.175"/>
</g>
<!-- E&#45;&gt;D -->
<g id="edge2" class="edge"><title>E&#45;&gt;D</title>
<path fill="none" stroke="black" stroke-width="0.7" d="M62.9456,-215.871C69.964,-191.564 82.8833,-146.819 91.2004,-118.013"/>
<polygon fill="black" stroke="black" stroke-width="0.7" points="94.6255,-118.768 94.0369,-108.189 87.9002,-116.826 94.6255,-118.768"/>
</g>
<!-- F -->
<g id="node6" class="node"><title>F</title>
<path fill="none" stroke="black" stroke-width="0.7" d="M73,-324C73,-324 43,-324 43,-324 37,-324 31,-318 31,-312 31,-312 31,-300 31,-300 31,-294 37,-288 43,-288 43,-288 73,-288 73,-288 79,-288 85,-294 85,-300 85,-300 85,-312 85,-312 85,-318 79,-324 73,-324"/>
<text text-anchor="middle" x="58" y="-302.9" font-family="sans-serif" font-size="12.00">F</text>
</g>
<!-- F&#45;&gt;E -->
<g id="edge1" class="edge"><title>F&#45;&gt;E</title>
<path fill="none" stroke="black" stroke-width="0.7" d="M58,-287.697C58,-279.983 58,-270.712 58,-262.112"/>
<polygon fill="black" stroke="black" stroke-width="0.7" points="61.5001,-262.104 58,-252.104 54.5001,-262.104 61.5001,-262.104"/>
</g>
</g>
</svg>
