<?xml version="1.0" encoding="UTF-8" standalone="no"?>
<!DOCTYPE svg PUBLIC "-//W3C//DTD SVG 1.1//EN"
 "http://www.w3.org/Graphics/SVG/1.1/DTD/svg11.dtd">
<!-- Generated by graphviz version 2.38.0 (20140413.2041)
 -->
<!-- Title: graphname Pages: 1 -->
<svg width="310pt" height="620pt"
 viewBox="0.00 0.00 310.20 620.00" xmlns="http://www.w3.org/2000/svg" xmlns:xlink="http://www.w3.org/1999/xlink">
<g id="graph0" class="graph" transform="scale(1 1) rotate(0) translate(4 616)">
<title>graphname</title>
<polygon fill="white" stroke="none" points="-4,4 -4,-616 306.199,-616 306.199,4 -4,4"/>
<!-- count -->
<g id="node1" class="node"><title>count</title>
<ellipse fill="none" stroke="black" stroke-width="0.7" cx="123.199" cy="-522" rx="34.2855" ry="18"/>
<text text-anchor="middle" x="123.199" y="-519.5" font-family="sans-serif" font-size="10.00">count = 3</text>
</g>
<!-- list_item_1 -->
<g id="node2" class="node"><title>list_item_1</title>
<ellipse fill="none" stroke="black" stroke-width="0.7" cx="177.199" cy="-450" rx="34.9638" ry="18"/>
<text text-anchor="middle" x="177.199" y="-447.5" font-family="sans-serif" font-size="10.00">list item 1</text>
</g>
<!-- element_1 -->
<g id="node3" class="node"><title>element_1</title>
<polygon fill="none" stroke="black" stroke-width="0.7" points="264.699,-396 205.699,-396 205.699,-360 264.699,-360 264.699,-396"/>
<text text-anchor="middle" x="235.199" y="-375.5" font-family="sans-serif" font-size="10.00">element 1</text>
</g>
<!-- list_item_1&#45;&gt;element_1 -->
<g id="edge5" class="edge"><title>list_item_1&#45;&gt;element_1</title>
<path fill="none" stroke="black" stroke-width="0.7" d="M190.36,-433.116C197.463,-424.544 206.393,-413.766 214.411,-404.089"/>
<polygon fill="black" stroke="black" stroke-width="0.7" points="217.186,-406.225 220.871,-396.292 211.796,-401.759 217.186,-406.225"/>
</g>
<!-- previous_1 -->
<g id="node4" class="node"><title>previous_1</title>
<ellipse fill="none" stroke="black" stroke-width="0.7" cx="38.1991" cy="-378" rx="31.3996" ry="18"/>
<text text-anchor="middle" x="38.1991" y="-375.5" font-family="sans-serif" font-size="10.00">previous</text>
</g>
<!-- list_item_1&#45;&gt;previous_1 -->
<g id="edge6" class="edge"><title>list_item_1&#45;&gt;previous_1</title>
<path fill="none" stroke="black" stroke-width="0.7" d="M152.987,-436.807C130.089,-425.275 95.5734,-407.894 70.3703,-395.201"/>
<polygon fill="black" stroke="black" stroke-width="0.7" points="71.7163,-391.96 61.2106,-390.589 68.5678,-398.212 71.7163,-391.96"/>
</g>
<!-- next_1 -->
<g id="node5" class="node"><title>next_1</title>
<ellipse fill="none" stroke="black" stroke-width="0.7" cx="118.199" cy="-378" rx="27" ry="18"/>
<text text-anchor="middle" x="118.199" y="-375.5" font-family="sans-serif" font-size="10.00">next</text>
</g>
<!-- list_item_1&#45;&gt;next_1 -->
<g id="edge7" class="edge"><title>list_item_1&#45;&gt;next_1</title>
<path fill="none" stroke="black" stroke-width="0.7" d="M163.811,-433.116C156.085,-423.949 146.232,-412.259 137.661,-402.091"/>
<polygon fill="black" stroke="black" stroke-width="0.7" points="140.25,-399.731 131.129,-394.34 134.897,-404.242 140.25,-399.731"/>
</g>
<!-- null_1 -->
<g id="node6" class="node"><title>null_1</title>
<polygon fill="none" stroke="black" stroke-width="0.7" points="61.1991,-324 7.19914,-324 7.19914,-288 61.1991,-288 61.1991,-324"/>
<text text-anchor="middle" x="34.1991" y="-303.5" font-family="sans-serif" font-size="10.00">null</text>
</g>
<!-- previous_1&#45;&gt;null_1 -->
<g id="edge9" class="edge"><title>previous_1&#45;&gt;null_1</title>
<path fill="none" stroke="black" stroke-width="0.7" d="M37.2104,-359.697C36.7696,-351.983 36.2398,-342.712 35.7484,-334.112"/>
<polygon fill="black" stroke="black" stroke-width="0.7" points="39.2414,-333.888 35.1765,-324.104 32.2528,-334.288 39.2414,-333.888"/>
</g>
<!-- list_item_2 -->
<g id="node7" class="node"><title>list_item_2</title>
<ellipse fill="none" stroke="black" stroke-width="0.7" cx="114.199" cy="-306" rx="34.9638" ry="18"/>
<text text-anchor="middle" x="114.199" y="-303.5" font-family="sans-serif" font-size="10.00">list item 2</text>
</g>
<!-- next_1&#45;&gt;list_item_2 -->
<g id="edge8" class="edge"><title>next_1&#45;&gt;list_item_2</title>
<path fill="none" stroke="black" stroke-width="0.7" d="M117.21,-359.697C116.77,-351.983 116.24,-342.712 115.748,-334.112"/>
<polygon fill="black" stroke="black" stroke-width="0.7" points="119.241,-333.888 115.177,-324.104 112.253,-334.288 119.241,-333.888"/>
</g>
<!-- element_2 -->
<g id="node8" class="node"><title>element_2</title>
<polygon fill="none" stroke="black" stroke-width="0.7" points="90.6991,-252 31.6991,-252 31.6991,-216 90.6991,-216 90.6991,-252"/>
<text text-anchor="middle" x="61.1991" y="-231.5" font-family="sans-serif" font-size="10.00">element 2</text>
</g>
<!-- list_item_2&#45;&gt;element_2 -->
<g id="edge10" class="edge"><title>list_item_2&#45;&gt;element_2</title>
<path fill="none" stroke="black" stroke-width="0.7" d="M101.907,-288.765C95.4735,-280.268 87.4543,-269.677 80.2386,-260.146"/>
<polygon fill="black" stroke="black" stroke-width="0.7" points="82.9912,-257.984 74.1644,-252.124 77.4104,-262.209 82.9912,-257.984"/>
</g>
<!-- previous_2 -->
<g id="node9" class="node"><title>previous_2</title>
<ellipse fill="none" stroke="black" stroke-width="0.7" cx="212.199" cy="-234" rx="31.3996" ry="18"/>
<text text-anchor="middle" x="212.199" y="-231.5" font-family="sans-serif" font-size="10.00">previous</text>
</g>
<!-- list_item_2&#45;&gt;previous_2 -->
<g id="edge11" class="edge"><title>list_item_2&#45;&gt;previous_2</title>
<path fill="none" stroke="black" stroke-width="0.7" d="M134.031,-290.834C148.66,-280.385 168.743,-266.04 184.889,-254.507"/>
<polygon fill="black" stroke="black" stroke-width="0.7" points="187.291,-257.092 193.394,-248.432 183.223,-251.396 187.291,-257.092"/>
</g>
<!-- next_2 -->
<g id="node10" class="node"><title>next_2</title>
<ellipse fill="none" stroke="black" stroke-width="0.7" cx="136.199" cy="-234" rx="27" ry="18"/>
<text text-anchor="middle" x="136.199" y="-231.5" font-family="sans-serif" font-size="10.00">next</text>
</g>
<!-- list_item_2&#45;&gt;next_2 -->
<g id="edge12" class="edge"><title>list_item_2&#45;&gt;next_2</title>
<path fill="none" stroke="black" stroke-width="0.7" d="M119.525,-288.055C122.038,-280.059 125.095,-270.331 127.902,-261.4"/>
<polygon fill="black" stroke="black" stroke-width="0.7" points="131.263,-262.378 130.923,-251.789 124.585,-260.28 131.263,-262.378"/>
</g>
<!-- previous_2&#45;&gt;list_item_1 -->
<g id="edge14" class="edge"><title>previous_2&#45;&gt;list_item_1</title>
<path fill="none" stroke="black" stroke-width="0.7" d="M209.429,-251.935C203.38,-288.925 188.943,-377.197 181.62,-421.969"/>
<polygon fill="black" stroke="black" stroke-width="0.7" points="178.164,-421.415 180.004,-431.849 185.072,-422.545 178.164,-421.415"/>
</g>
<!-- list_item_3 -->
<g id="node11" class="node"><title>list_item_3</title>
<ellipse fill="none" stroke="black" stroke-width="0.7" cx="136.199" cy="-162" rx="34.9638" ry="18"/>
<text text-anchor="middle" x="136.199" y="-159.5" font-family="sans-serif" font-size="10.00">list item 3</text>
</g>
<!-- next_2&#45;&gt;list_item_3 -->
<g id="edge13" class="edge"><title>next_2&#45;&gt;list_item_3</title>
<path fill="none" stroke="black" stroke-width="0.7" d="M136.199,-215.697C136.199,-207.983 136.199,-198.712 136.199,-190.112"/>
<polygon fill="black" stroke="black" stroke-width="0.7" points="139.699,-190.104 136.199,-180.104 132.699,-190.104 139.699,-190.104"/>
</g>
<!-- element_3 -->
<g id="node12" class="node"><title>element_3</title>
<polygon fill="none" stroke="black" stroke-width="0.7" points="225.699,-108 166.699,-108 166.699,-72 225.699,-72 225.699,-108"/>
<text text-anchor="middle" x="196.199" y="-87.5" font-family="sans-serif" font-size="10.00">element 3</text>
</g>
<!-- list_item_3&#45;&gt;element_3 -->
<g id="edge15" class="edge"><title>list_item_3&#45;&gt;element_3</title>
<path fill="none" stroke="black" stroke-width="0.7" d="M149.814,-145.116C157.161,-136.544 166.4,-125.766 174.694,-116.089"/>
<polygon fill="black" stroke="black" stroke-width="0.7" points="177.527,-118.163 181.377,-108.292 172.212,-113.607 177.527,-118.163"/>
</g>
<!-- previous_3 -->
<g id="node13" class="node"><title>previous_3</title>
<ellipse fill="none" stroke="black" stroke-width="0.7" cx="31.1991" cy="-90" rx="31.3996" ry="18"/>
<text text-anchor="middle" x="31.1991" y="-87.5" font-family="sans-serif" font-size="10.00">previous</text>
</g>
<!-- list_item_3&#45;&gt;previous_3 -->
<g id="edge16" class="edge"><title>list_item_3&#45;&gt;previous_3</title>
<path fill="none" stroke="black" stroke-width="0.7" d="M115.705,-147.337C99.7466,-136.698 77.4083,-121.806 59.7065,-110.005"/>
<polygon fill="black" stroke="black" stroke-width="0.7" points="61.1925,-106.789 50.9305,-104.154 57.3096,-112.613 61.1925,-106.789"/>
</g>
<!-- next_3 -->
<g id="node14" class="node"><title>next_3</title>
<ellipse fill="none" stroke="black" stroke-width="0.7" cx="121.199" cy="-90" rx="27" ry="18"/>
<text text-anchor="middle" x="121.199" y="-87.5" font-family="sans-serif" font-size="10.00">next</text>
</g>
<!-- list_item_3&#45;&gt;next_3 -->
<g id="edge17" class="edge"><title>list_item_3&#45;&gt;next_3</title>
<path fill="none" stroke="black" stroke-width="0.7" d="M132.568,-144.055C130.898,-136.261 128.875,-126.822 127.002,-118.079"/>
<polygon fill="black" stroke="black" stroke-width="0.7" points="130.419,-117.32 124.901,-108.275 123.574,-118.787 130.419,-117.32"/>
</g>
<!-- previous_3&#45;&gt;list_item_2 -->
<g id="edge18" class="edge"><title>previous_3&#45;&gt;list_item_2</title>
<path fill="none" stroke="black" stroke-width="0.7" d="M24.5782,-107.914C13.6214,-138.87 -4.55806,-205.706 22.1991,-252 28.6848,-263.221 55.806,-278.107 78.9348,-289.246"/>
<polygon fill="black" stroke="black" stroke-width="0.7" points="77.6653,-292.517 88.2029,-293.617 80.6513,-286.185 77.6653,-292.517"/>
</g>
<!-- null_3 -->
<g id="node15" class="node"><title>null_3</title>
<polygon fill="none" stroke="black" stroke-width="0.7" points="148.199,-36 94.1991,-36 94.1991,-0 148.199,-0 148.199,-36"/>
<text text-anchor="middle" x="121.199" y="-15.5" font-family="sans-serif" font-size="10.00">null</text>
</g>
<!-- next_3&#45;&gt;null_3 -->
<g id="edge20" class="edge"><title>next_3&#45;&gt;null_3</title>
<path fill="none" stroke="black" stroke-width="0.7" d="M121.199,-71.6966C121.199,-63.9827 121.199,-54.7125 121.199,-46.1124"/>
<polygon fill="black" stroke="black" stroke-width="0.7" points="124.699,-46.1043 121.199,-36.1043 117.699,-46.1044 124.699,-46.1043"/>
</g>
<!-- list -->
<g id="node16" class="node"><title>list</title>
<ellipse fill="none" stroke="black" stroke-width="0.7" cx="202.199" cy="-594" rx="27" ry="18"/>
<text text-anchor="middle" x="202.199" y="-591.5" font-family="sans-serif" font-size="10.00">list</text>
</g>
<!-- list&#45;&gt;count -->
<g id="edge3" class="edge"><title>list&#45;&gt;count</title>
<path fill="none" stroke="black" stroke-width="0.7" d="M186.591,-579.17C175.42,-569.272 160.164,-555.754 147.418,-544.46"/>
<polygon fill="black" stroke="black" stroke-width="0.7" points="149.671,-541.78 139.866,-537.768 145.029,-547.019 149.671,-541.78"/>
</g>
<!-- first -->
<g id="node17" class="node"><title>first</title>
<ellipse fill="none" stroke="black" stroke-width="0.7" cx="202.199" cy="-522" rx="27" ry="18"/>
<text text-anchor="middle" x="202.199" y="-519.5" font-family="sans-serif" font-size="10.00">first</text>
</g>
<!-- list&#45;&gt;first -->
<g id="edge1" class="edge"><title>list&#45;&gt;first</title>
<path fill="none" stroke="black" stroke-width="0.7" d="M202.199,-575.697C202.199,-567.983 202.199,-558.712 202.199,-550.112"/>
<polygon fill="black" stroke="black" stroke-width="0.7" points="205.699,-550.104 202.199,-540.104 198.699,-550.104 205.699,-550.104"/>
</g>
<!-- last -->
<g id="node18" class="node"><title>last</title>
<ellipse fill="none" stroke="black" stroke-width="0.7" cx="275.199" cy="-450" rx="27" ry="18"/>
<text text-anchor="middle" x="275.199" y="-447.5" font-family="sans-serif" font-size="10.00">last</text>
</g>
<!-- list&#45;&gt;last -->
<g id="edge2" class="edge"><title>list&#45;&gt;last</title>
<path fill="none" stroke="black" stroke-width="0.7" d="M214.107,-577.297C221.583,-567.02 231.114,-553.114 238.199,-540 249.154,-519.722 259.031,-495.502 265.82,-477.45"/>
<polygon fill="black" stroke="black" stroke-width="0.7" points="269.178,-478.46 269.352,-467.867 262.609,-476.039 269.178,-478.46"/>
</g>
<!-- first&#45;&gt;list_item_1 -->
<g id="edge4" class="edge"><title>first&#45;&gt;list_item_1</title>
<path fill="none" stroke="black" stroke-width="0.7" d="M196.274,-504.411C193.421,-496.421 189.928,-486.642 186.715,-477.645"/>
<polygon fill="black" stroke="black" stroke-width="0.7" points="189.914,-476.196 183.255,-467.956 183.322,-478.551 189.914,-476.196"/>
</g>
<!-- last&#45;&gt;list_item_3 -->
<g id="edge19" class="edge"><title>last&#45;&gt;list_item_3</title>
<path fill="none" stroke="black" stroke-width="0.7" d="M278.984,-431.949C287.182,-390.305 302.056,-282.005 252.199,-216 234.35,-192.37 203.49,-178.965 178.085,-171.55"/>
<polygon fill="black" stroke="black" stroke-width="0.7" points="178.866,-168.136 168.299,-168.904 177.039,-174.893 178.866,-168.136"/>
</g>
</g>
</svg>
