<?xml version="1.0" encoding="UTF-8" standalone="no"?>
<!DOCTYPE svg PUBLIC "-//W3C//DTD SVG 1.1//EN"
 "http://www.w3.org/Graphics/SVG/1.1/DTD/svg11.dtd">
<!-- Generated by graphviz version 2.38.0 (20140413.2041)
 -->
<!-- Title: graphname Pages: 1 -->
<svg width="394pt" height="116pt"
 viewBox="0.00 0.00 394.00 116.00" xmlns="http://www.w3.org/2000/svg" xmlns:xlink="http://www.w3.org/1999/xlink">
<g id="graph0" class="graph" transform="scale(1 1) rotate(0) translate(4 112)">
<title>graphname</title>
<polygon fill="white" stroke="none" points="-4,4 -4,-112 390,-112 390,4 -4,4"/>
<!-- Clay -->
<g id="node1" class="node"><title>Clay</title>
<path fill="none" stroke="black" stroke-width="0.7" d="M42,-36C42,-36 12,-36 12,-36 6,-36 0,-30 0,-24 0,-24 0,-12 0,-12 0,-6 6,-0 12,-0 12,-0 42,-0 42,-0 48,-0 54,-6 54,-12 54,-12 54,-24 54,-24 54,-30 48,-36 42,-36"/>
<text text-anchor="middle" x="27" y="-14.9" font-family="sans-serif" font-size="12.00">Clay</text>
</g>
<!-- Wooden -->
<g id="node2" class="node"><title>Wooden</title>
<path fill="none" stroke="black" stroke-width="0.7" d="M362,-36C362,-36 326,-36 326,-36 320,-36 314,-30 314,-24 314,-24 314,-12 314,-12 314,-6 320,-0 326,-0 326,-0 362,-0 362,-0 368,-0 374,-6 374,-12 374,-12 374,-24 374,-24 374,-30 368,-36 362,-36"/>
<text text-anchor="middle" x="344" y="-14.9" font-family="sans-serif" font-size="12.00">Wooden</text>
</g>
<!-- ConstructionMaterial -->
<g id="node3" class="node"><title>ConstructionMaterial</title>
<path fill="none" stroke="black" stroke-width="0.7" d="M185.5,-36C185.5,-36 84.5,-36 84.5,-36 78.5,-36 72.5,-30 72.5,-24 72.5,-24 72.5,-12 72.5,-12 72.5,-6 78.5,-0 84.5,-0 84.5,-0 185.5,-0 185.5,-0 191.5,-0 197.5,-6 197.5,-12 197.5,-12 197.5,-24 197.5,-24 197.5,-30 191.5,-36 185.5,-36"/>
<text text-anchor="middle" x="135" y="-14.9" font-family="sans-serif" font-size="12.00">ConstructionMaterial</text>
</g>
<!-- Brick -->
<g id="node4" class="node"><title>Brick</title>
<path fill="none" stroke="black" stroke-width="0.7" d="M42,-108C42,-108 12,-108 12,-108 6,-108 0,-102 0,-96 0,-96 0,-84 0,-84 0,-78 6,-72 12,-72 12,-72 42,-72 42,-72 48,-72 54,-78 54,-84 54,-84 54,-96 54,-96 54,-102 48,-108 42,-108"/>
<text text-anchor="middle" x="27" y="-86.9" font-family="sans-serif" font-size="12.00">Brick</text>
</g>
<!-- Brick&#45;&gt;Clay -->
<g id="edge2" class="edge"><title>Brick&#45;&gt;Clay</title>
<path fill="none" stroke="black" stroke-width="0.7" d="M27,-71.6966C27,-63.9827 27,-54.7125 27,-46.1124"/>
<polygon fill="black" stroke="black" stroke-width="0.7" points="30.5001,-46.1043 27,-36.1043 23.5001,-46.1044 30.5001,-46.1043"/>
</g>
<!-- Brick&#45;&gt;ConstructionMaterial -->
<g id="edge1" class="edge"><title>Brick&#45;&gt;ConstructionMaterial</title>
<path fill="none" stroke="black" stroke-width="0.7" d="M53.4198,-71.8761C67.41,-62.8083 84.7764,-51.5523 99.8858,-41.7592"/>
<polygon fill="black" stroke="black" stroke-width="0.7" points="101.991,-44.5658 108.479,-36.1898 98.1835,-38.6917 101.991,-44.5658"/>
</g>
<!-- Kitchenware -->
<g id="node5" class="node"><title>Kitchenware</title>
<path fill="none" stroke="black" stroke-width="0.7" d="M284,-36C284,-36 228,-36 228,-36 222,-36 216,-30 216,-24 216,-24 216,-12 216,-12 216,-6 222,-0 228,-0 228,-0 284,-0 284,-0 290,-0 296,-6 296,-12 296,-12 296,-24 296,-24 296,-30 290,-36 284,-36"/>
<text text-anchor="middle" x="256" y="-14.9" font-family="sans-serif" font-size="12.00">Kitchenware</text>
</g>
<!-- Plate -->
<g id="node6" class="node"><title>Plate</title>
<path fill="none" stroke="black" stroke-width="0.7" d="M192,-108C192,-108 162,-108 162,-108 156,-108 150,-102 150,-96 150,-96 150,-84 150,-84 150,-78 156,-72 162,-72 162,-72 192,-72 192,-72 198,-72 204,-78 204,-84 204,-84 204,-96 204,-96 204,-102 198,-108 192,-108"/>
<text text-anchor="middle" x="177" y="-86.9" font-family="sans-serif" font-size="12.00">Plate</text>
</g>
<!-- Plate&#45;&gt;Clay -->
<g id="edge4" class="edge"><title>Plate&#45;&gt;Clay</title>
<path fill="none" stroke="black" stroke-width="0.7" d="M149.799,-76.4095C128.585,-66.5781 98.1577,-52.4503 63.5059,-36.2256"/>
<polygon fill="black" stroke="black" stroke-width="0.7" points="64.6589,-32.9007 54.1186,-31.8273 61.689,-39.2395 64.6589,-32.9007"/>
</g>
<!-- Plate&#45;&gt;Kitchenware -->
<g id="edge3" class="edge"><title>Plate&#45;&gt;Kitchenware</title>
<path fill="none" stroke="black" stroke-width="0.7" d="M196.528,-71.6966C206.382,-62.9655 218.486,-52.2405 229.196,-42.7503"/>
<polygon fill="black" stroke="black" stroke-width="0.7" points="231.533,-45.3558 236.697,-36.1043 226.891,-40.1166 231.533,-45.3558"/>
</g>
<!-- Mug -->
<g id="node7" class="node"><title>Mug</title>
<path fill="none" stroke="black" stroke-width="0.7" d="M115,-108C115,-108 85,-108 85,-108 79,-108 73,-102 73,-96 73,-96 73,-84 73,-84 73,-78 79,-72 85,-72 85,-72 115,-72 115,-72 121,-72 127,-78 127,-84 127,-84 127,-96 127,-96 127,-102 121,-108 115,-108"/>
<text text-anchor="middle" x="100" y="-86.9" font-family="sans-serif" font-size="12.00">Mug</text>
</g>
<!-- Mug&#45;&gt;Clay -->
<g id="edge6" class="edge"><title>Mug&#45;&gt;Clay</title>
<path fill="none" stroke="black" stroke-width="0.7" d="M81.9551,-71.6966C72.9381,-63.0503 61.8821,-52.4486 52.0568,-43.027"/>
<polygon fill="black" stroke="black" stroke-width="0.7" points="54.4777,-40.4993 44.8374,-36.1043 49.6328,-45.5518 54.4777,-40.4993"/>
</g>
<!-- Mug&#45;&gt;Kitchenware -->
<g id="edge5" class="edge"><title>Mug&#45;&gt;Kitchenware</title>
<path fill="none" stroke="black" stroke-width="0.7" d="M127.173,-76.8069C149.662,-66.7155 182.137,-52.1438 208.853,-40.1555"/>
<polygon fill="black" stroke="black" stroke-width="0.7" points="210.347,-43.3216 218.038,-36.0344 207.481,-36.9351 210.347,-43.3216"/>
</g>
<!-- Timber -->
<g id="node8" class="node"><title>Timber</title>
<path fill="none" stroke="black" stroke-width="0.7" d="M268.5,-108C268.5,-108 237.5,-108 237.5,-108 231.5,-108 225.5,-102 225.5,-96 225.5,-96 225.5,-84 225.5,-84 225.5,-78 231.5,-72 237.5,-72 237.5,-72 268.5,-72 268.5,-72 274.5,-72 280.5,-78 280.5,-84 280.5,-84 280.5,-96 280.5,-96 280.5,-102 274.5,-108 268.5,-108"/>
<text text-anchor="middle" x="253" y="-86.9" font-family="sans-serif" font-size="12.00">Timber</text>
</g>
<!-- Timber&#45;&gt;Wooden -->
<g id="edge8" class="edge"><title>Timber&#45;&gt;Wooden</title>
<path fill="none" stroke="black" stroke-width="0.7" d="M275.494,-71.6966C286.955,-62.8807 301.058,-52.0321 313.484,-42.4742"/>
<polygon fill="black" stroke="black" stroke-width="0.7" points="315.972,-44.9757 321.764,-36.1043 311.704,-39.4273 315.972,-44.9757"/>
</g>
<!-- Timber&#45;&gt;ConstructionMaterial -->
<g id="edge7" class="edge"><title>Timber&#45;&gt;ConstructionMaterial</title>
<path fill="none" stroke="black" stroke-width="0.7" d="M225.334,-72.5881C209.556,-63.2282 189.566,-51.3697 172.404,-41.1889"/>
<polygon fill="black" stroke="black" stroke-width="0.7" points="174.111,-38.1319 163.725,-36.04 170.539,-44.1523 174.111,-38.1319"/>
</g>
<!-- CuttingBoard -->
<g id="node9" class="node"><title>CuttingBoard</title>
<path fill="none" stroke="black" stroke-width="0.7" d="M374,-108C374,-108 312,-108 312,-108 306,-108 300,-102 300,-96 300,-96 300,-84 300,-84 300,-78 306,-72 312,-72 312,-72 374,-72 374,-72 380,-72 386,-78 386,-84 386,-84 386,-96 386,-96 386,-102 380,-108 374,-108"/>
<text text-anchor="middle" x="343" y="-86.9" font-family="sans-serif" font-size="12.00">CuttingBoard</text>
</g>
<!-- CuttingBoard&#45;&gt;Wooden -->
<g id="edge10" class="edge"><title>CuttingBoard&#45;&gt;Wooden</title>
<path fill="none" stroke="black" stroke-width="0.7" d="M343.247,-71.6966C343.357,-63.9827 343.49,-54.7125 343.613,-46.1124"/>
<polygon fill="black" stroke="black" stroke-width="0.7" points="347.112,-46.1533 343.756,-36.1043 340.113,-46.0533 347.112,-46.1533"/>
</g>
<!-- CuttingBoard&#45;&gt;Kitchenware -->
<g id="edge9" class="edge"><title>CuttingBoard&#45;&gt;Kitchenware</title>
<path fill="none" stroke="black" stroke-width="0.7" d="M321.494,-71.6966C310.537,-62.8807 297.054,-52.0321 285.175,-42.4742"/>
<polygon fill="black" stroke="black" stroke-width="0.7" points="287.244,-39.6462 277.258,-36.1043 282.855,-45.1001 287.244,-39.6462"/>
</g>
</g>
</svg>
