<?xml version="1.0" encoding="UTF-8" standalone="no"?>
<!DOCTYPE svg PUBLIC "-//W3C//DTD SVG 1.1//EN"
 "http://www.w3.org/Graphics/SVG/1.1/DTD/svg11.dtd">
<!-- Generated by graphviz version 2.38.0 (20140413.2041)
 -->
<!-- Title: graphname Pages: 1 -->
<svg width="263pt" height="210pt"
 viewBox="0.00 0.00 263.39 209.57" xmlns="http://www.w3.org/2000/svg" xmlns:xlink="http://www.w3.org/1999/xlink">
<g id="graph0" class="graph" transform="scale(1 1) rotate(0) translate(4 205.569)">
<title>graphname</title>
<polygon fill="white" stroke="none" points="-4,4 -4,-205.569 259.392,-205.569 259.392,4 -4,4"/>
<!-- mom -->
<g id="node1" class="node"><title>mom</title>
<path fill="none" stroke="black" stroke-width="0.7" d="M42,-124.177C42,-124.177 12,-124.177 12,-124.177 6,-124.177 0,-118.177 0,-112.177 0,-112.177 0,-100.177 0,-100.177 0,-94.1769 6,-88.1769 12,-88.1769 12,-88.1769 42,-88.1769 42,-88.1769 48,-88.1769 54,-94.1769 54,-100.177 54,-100.177 54,-112.177 54,-112.177 54,-118.177 48,-124.177 42,-124.177"/>
<text text-anchor="middle" x="27" y="-103.077" font-family="sans-serif" font-size="12.00">mom</text>
</g>
<!-- a -->
<g id="node2" class="node"><title>a</title>
<ellipse fill="none" stroke="black" stroke-width="0.7" cx="27" cy="-23.3923" rx="23.2851" ry="23.2851"/>
<text text-anchor="middle" x="27" y="-20.2923" font-family="sans-serif" font-size="12.00">a: 1</text>
</g>
<!-- mom&#45;&gt;a -->
<g id="edge1" class="edge"><title>mom&#45;&gt;a</title>
<path fill="none" stroke="black" stroke-width="0.7" d="M27,-88.0446C27,-79.0825 27,-67.803 27,-57.2378"/>
<polygon fill="black" stroke="black" stroke-width="0.7" points="30.5001,-57.0229 27,-47.0229 23.5001,-57.0229 30.5001,-57.0229"/>
</g>
<!-- dad -->
<g id="node3" class="node"><title>dad</title>
<path fill="none" stroke="black" stroke-width="0.7" d="M114,-124.177C114,-124.177 84,-124.177 84,-124.177 78,-124.177 72,-118.177 72,-112.177 72,-112.177 72,-100.177 72,-100.177 72,-94.1769 78,-88.1769 84,-88.1769 84,-88.1769 114,-88.1769 114,-88.1769 120,-88.1769 126,-94.1769 126,-100.177 126,-100.177 126,-112.177 126,-112.177 126,-118.177 120,-124.177 114,-124.177"/>
<text text-anchor="middle" x="99" y="-103.077" font-family="sans-serif" font-size="12.00">dad</text>
</g>
<!-- b -->
<g id="node4" class="node"><title>b</title>
<ellipse fill="none" stroke="black" stroke-width="0.7" cx="95" cy="-23.3923" rx="23.2851" ry="23.2851"/>
<text text-anchor="middle" x="95" y="-20.2923" font-family="sans-serif" font-size="12.00">b: 2</text>
</g>
<!-- dad&#45;&gt;b -->
<g id="edge2" class="edge"><title>dad&#45;&gt;b</title>
<path fill="none" stroke="black" stroke-width="0.7" d="M98.1517,-88.0446C97.708,-79.0825 97.1495,-67.803 96.6263,-57.2378"/>
<polygon fill="black" stroke="black" stroke-width="0.7" points="100.111,-56.8375 96.1205,-47.0229 93.1195,-57.1838 100.111,-56.8375"/>
</g>
<!-- c -->
<g id="node5" class="node"><title>c</title>
<ellipse fill="none" stroke="black" stroke-width="0.7" cx="159" cy="-23.3923" rx="22.5556" ry="22.5556"/>
<text text-anchor="middle" x="159" y="-20.2923" font-family="sans-serif" font-size="12.00">c: 3</text>
</g>
<!-- dad&#45;&gt;c -->
<g id="edge3" class="edge"><title>dad&#45;&gt;c</title>
<path fill="none" stroke="black" stroke-width="0.7" d="M111.724,-88.0446C119.886,-77.0562 130.634,-62.584 139.82,-50.216"/>
<polygon fill="black" stroke="black" stroke-width="0.7" points="142.726,-52.1733 145.879,-42.0584 137.107,-47.9995 142.726,-52.1733"/>
</g>
<!-- child -->
<g id="node6" class="node"><title>child</title>
<path fill="none" stroke="black" stroke-width="0.7" d="M148,-201.569C148,-201.569 118,-201.569 118,-201.569 112,-201.569 106,-195.569 106,-189.569 106,-189.569 106,-177.569 106,-177.569 106,-171.569 112,-165.569 118,-165.569 118,-165.569 148,-165.569 148,-165.569 154,-165.569 160,-171.569 160,-177.569 160,-177.569 160,-189.569 160,-189.569 160,-195.569 154,-201.569 148,-201.569"/>
<text text-anchor="middle" x="133" y="-180.469" font-family="sans-serif" font-size="12.00">child</text>
</g>
<!-- child&#45;&gt;mom -->
<g id="edge6" class="edge"><title>child&#45;&gt;mom</title>
<path fill="none" stroke="black" stroke-width="0.7" d="M108.947,-165.462C94.31,-155.051 75.424,-141.618 59.4724,-130.273"/>
<polygon fill="black" stroke="black" stroke-width="0.7" points="61.1355,-127.161 50.9579,-124.217 57.0783,-132.865 61.1355,-127.161"/>
</g>
<!-- child&#45;&gt;dad -->
<g id="edge7" class="edge"><title>child&#45;&gt;dad</title>
<path fill="none" stroke="black" stroke-width="0.7" d="M125.285,-165.462C121.025,-156.015 115.642,-144.08 110.859,-133.474"/>
<polygon fill="black" stroke="black" stroke-width="0.7" points="113.986,-131.894 106.685,-124.217 107.605,-134.772 113.986,-131.894"/>
</g>
<!-- d -->
<g id="node7" class="node"><title>d</title>
<ellipse fill="none" stroke="black" stroke-width="0.7" cx="167" cy="-106.177" rx="23.2851" ry="23.2851"/>
<text text-anchor="middle" x="167" y="-103.077" font-family="sans-serif" font-size="12.00">d: 4</text>
</g>
<!-- child&#45;&gt;d -->
<g id="edge4" class="edge"><title>child&#45;&gt;d</title>
<path fill="none" stroke="black" stroke-width="0.7" d="M140.715,-165.462C144.506,-157.055 149.186,-146.678 153.542,-137.02"/>
<polygon fill="black" stroke="black" stroke-width="0.7" points="156.823,-138.257 157.744,-127.702 150.442,-135.379 156.823,-138.257"/>
</g>
<!-- e -->
<g id="node8" class="node"><title>e</title>
<ellipse fill="none" stroke="black" stroke-width="0.7" cx="232" cy="-106.177" rx="23.2851" ry="23.2851"/>
<text text-anchor="middle" x="232" y="-103.077" font-family="sans-serif" font-size="12.00">e: 5</text>
</g>
<!-- child&#45;&gt;e -->
<g id="edge5" class="edge"><title>child&#45;&gt;e</title>
<path fill="none" stroke="black" stroke-width="0.7" d="M155.465,-165.462C170.29,-154.171 189.783,-139.327 205.386,-127.444"/>
<polygon fill="black" stroke="black" stroke-width="0.7" points="207.765,-130.032 213.6,-121.189 203.524,-124.463 207.765,-130.032"/>
</g>
</g>
</svg>
