<?xml version="1.0" encoding="UTF-8" standalone="no"?>
<!DOCTYPE svg PUBLIC "-//W3C//DTD SVG 1.1//EN"
 "http://www.w3.org/Graphics/SVG/1.1/DTD/svg11.dtd">
<!-- Generated by graphviz version 2.38.0 (20140413.2041)
 -->
<!-- Title: graphname Pages: 1 -->
<svg width="308pt" height="116pt"
 viewBox="0.00 0.00 307.50 116.00" xmlns="http://www.w3.org/2000/svg" xmlns:xlink="http://www.w3.org/1999/xlink">
<g id="graph0" class="graph" transform="scale(1 1) rotate(0) translate(4 112)">
<title>graphname</title>
<polygon fill="white" stroke="none" points="-4,4 -4,-112 303.5,-112 303.5,4 -4,4"/>
<!-- device -->
<g id="node1" class="node"><title>device</title>
<path fill="none" stroke="black" stroke-width="0.7" d="M52.5,-36C52.5,-36 22.5,-36 22.5,-36 16.5,-36 10.5,-30 10.5,-24 10.5,-24 10.5,-12 10.5,-12 10.5,-6 16.5,-0 22.5,-0 22.5,-0 52.5,-0 52.5,-0 58.5,-0 64.5,-6 64.5,-12 64.5,-12 64.5,-24 64.5,-24 64.5,-30 58.5,-36 52.5,-36"/>
<text text-anchor="middle" x="37.5" y="-14.9" font-family="sans-serif" font-size="12.00">Device</text>
</g>
<!-- animal -->
<g id="node2" class="node"><title>animal</title>
<path fill="none" stroke="black" stroke-width="0.7" d="M286.5,-36C286.5,-36 256.5,-36 256.5,-36 250.5,-36 244.5,-30 244.5,-24 244.5,-24 244.5,-12 244.5,-12 244.5,-6 250.5,-0 256.5,-0 256.5,-0 286.5,-0 286.5,-0 292.5,-0 298.5,-6 298.5,-12 298.5,-12 298.5,-24 298.5,-24 298.5,-30 292.5,-36 286.5,-36"/>
<text text-anchor="middle" x="271.5" y="-14.9" font-family="sans-serif" font-size="12.00">Animal</text>
</g>
<!-- can_walk -->
<g id="node3" class="node"><title>can_walk</title>
<path fill="none" stroke="black" stroke-width="0.7" d="M213,-36C213,-36 172,-36 172,-36 166,-36 160,-30 160,-24 160,-24 160,-12 160,-12 160,-6 166,-0 172,-0 172,-0 213,-0 213,-0 219,-0 225,-6 225,-12 225,-12 225,-24 225,-24 225,-30 219,-36 213,-36"/>
<text text-anchor="middle" x="192.5" y="-14.9" font-family="sans-serif" font-size="12.00">Can walk</text>
</g>
<!-- can_fly -->
<g id="node4" class="node"><title>can_fly</title>
<path fill="none" stroke="black" stroke-width="0.7" d="M127.5,-36C127.5,-36 97.5,-36 97.5,-36 91.5,-36 85.5,-30 85.5,-24 85.5,-24 85.5,-12 85.5,-12 85.5,-6 91.5,-0 97.5,-0 97.5,-0 127.5,-0 127.5,-0 133.5,-0 139.5,-6 139.5,-12 139.5,-12 139.5,-24 139.5,-24 139.5,-30 133.5,-36 127.5,-36"/>
<text text-anchor="middle" x="112.5" y="-14.9" font-family="sans-serif" font-size="12.00">Can fly</text>
</g>
<!-- airplane -->
<g id="node5" class="node"><title>airplane</title>
<path fill="none" stroke="black" stroke-width="0.7" d="M49,-108C49,-108 12,-108 12,-108 6,-108 3.55271e-015,-102 3.55271e-015,-96 3.55271e-015,-96 3.55271e-015,-84 3.55271e-015,-84 3.55271e-015,-78 6,-72 12,-72 12,-72 49,-72 49,-72 55,-72 61,-78 61,-84 61,-84 61,-96 61,-96 61,-102 55,-108 49,-108"/>
<text text-anchor="middle" x="30.5" y="-86.9" font-family="sans-serif" font-size="12.00">Airplane</text>
</g>
<!-- airplane&#45;&gt;device -->
<g id="edge1" class="edge"><title>airplane&#45;&gt;device</title>
<path fill="none" stroke="black" stroke-width="0.7" d="M32.2303,-71.6966C33.0017,-63.9827 33.9288,-54.7125 34.7888,-46.1124"/>
<polygon fill="black" stroke="black" stroke-width="0.7" points="38.2771,-46.403 35.7896,-36.1043 31.3118,-45.7064 38.2771,-46.403"/>
</g>
<!-- airplane&#45;&gt;can_fly -->
<g id="edge2" class="edge"><title>airplane&#45;&gt;can_fly</title>
<path fill="none" stroke="black" stroke-width="0.7" d="M50.7697,-71.6966C60.9976,-62.9655 73.5611,-52.2405 84.6782,-42.7503"/>
<polygon fill="black" stroke="black" stroke-width="0.7" points="87.1303,-45.259 92.4635,-36.1043 82.5854,-39.935 87.1303,-45.259"/>
</g>
<!-- terminator -->
<g id="node6" class="node"><title>terminator</title>
<path fill="none" stroke="black" stroke-width="0.7" d="M143.5,-108C143.5,-108 91.5,-108 91.5,-108 85.5,-108 79.5,-102 79.5,-96 79.5,-96 79.5,-84 79.5,-84 79.5,-78 85.5,-72 91.5,-72 91.5,-72 143.5,-72 143.5,-72 149.5,-72 155.5,-78 155.5,-84 155.5,-84 155.5,-96 155.5,-96 155.5,-102 149.5,-108 143.5,-108"/>
<text text-anchor="middle" x="117.5" y="-86.9" font-family="sans-serif" font-size="12.00">Terminator</text>
</g>
<!-- terminator&#45;&gt;device -->
<g id="edge3" class="edge"><title>terminator&#45;&gt;device</title>
<path fill="none" stroke="black" stroke-width="0.7" d="M97.7247,-71.6966C87.7463,-62.9655 75.4891,-52.2405 64.6432,-42.7503"/>
<polygon fill="black" stroke="black" stroke-width="0.7" points="66.8784,-40.0554 57.0478,-36.1043 62.2688,-45.3234 66.8784,-40.0554"/>
</g>
<!-- terminator&#45;&gt;can_walk -->
<g id="edge4" class="edge"><title>terminator&#45;&gt;can_walk</title>
<path fill="none" stroke="black" stroke-width="0.7" d="M136.039,-71.6966C145.303,-63.0503 156.662,-52.4486 166.757,-43.027"/>
<polygon fill="black" stroke="black" stroke-width="0.7" points="169.251,-45.4863 174.174,-36.1043 164.475,-40.3688 169.251,-45.4863"/>
</g>
<!-- bat -->
<g id="node7" class="node"><title>bat</title>
<path fill="none" stroke="black" stroke-width="0.7" d="M215.5,-108C215.5,-108 185.5,-108 185.5,-108 179.5,-108 173.5,-102 173.5,-96 173.5,-96 173.5,-84 173.5,-84 173.5,-78 179.5,-72 185.5,-72 185.5,-72 215.5,-72 215.5,-72 221.5,-72 227.5,-78 227.5,-84 227.5,-84 227.5,-96 227.5,-96 227.5,-102 221.5,-108 215.5,-108"/>
<text text-anchor="middle" x="200.5" y="-86.9" font-family="sans-serif" font-size="12.00">Bat</text>
</g>
<!-- bat&#45;&gt;animal -->
<g id="edge5" class="edge"><title>bat&#45;&gt;animal</title>
<path fill="none" stroke="black" stroke-width="0.7" d="M218.051,-71.6966C226.734,-63.135 237.363,-52.6562 246.848,-43.3045"/>
<polygon fill="black" stroke="black" stroke-width="0.7" points="249.488,-45.6175 254.151,-36.1043 244.573,-40.6327 249.488,-45.6175"/>
</g>
<!-- bat&#45;&gt;can_fly -->
<g id="edge6" class="edge"><title>bat&#45;&gt;can_fly</title>
<path fill="none" stroke="black" stroke-width="0.7" d="M178.747,-71.6966C167.664,-62.8807 154.026,-52.0321 142.01,-42.4742"/>
<polygon fill="black" stroke="black" stroke-width="0.7" points="144.007,-39.5905 134.003,-36.1043 139.65,-45.0687 144.007,-39.5905"/>
</g>
<!-- cow -->
<g id="node8" class="node"><title>cow</title>
<path fill="none" stroke="black" stroke-width="0.7" d="M287.5,-108C287.5,-108 257.5,-108 257.5,-108 251.5,-108 245.5,-102 245.5,-96 245.5,-96 245.5,-84 245.5,-84 245.5,-78 251.5,-72 257.5,-72 257.5,-72 287.5,-72 287.5,-72 293.5,-72 299.5,-78 299.5,-84 299.5,-84 299.5,-96 299.5,-96 299.5,-102 293.5,-108 287.5,-108"/>
<text text-anchor="middle" x="272.5" y="-86.9" font-family="sans-serif" font-size="12.00">Cow</text>
</g>
<!-- cow&#45;&gt;animal -->
<g id="edge7" class="edge"><title>cow&#45;&gt;animal</title>
<path fill="none" stroke="black" stroke-width="0.7" d="M272.253,-71.6966C272.143,-63.9827 272.01,-54.7125 271.887,-46.1124"/>
<polygon fill="black" stroke="black" stroke-width="0.7" points="275.387,-46.0533 271.744,-36.1043 268.388,-46.1533 275.387,-46.0533"/>
</g>
<!-- cow&#45;&gt;can_walk -->
<g id="edge8" class="edge"><title>cow&#45;&gt;can_walk</title>
<path fill="none" stroke="black" stroke-width="0.7" d="M252.725,-71.6966C242.746,-62.9655 230.489,-52.2405 219.643,-42.7503"/>
<polygon fill="black" stroke="black" stroke-width="0.7" points="221.878,-40.0554 212.048,-36.1043 217.269,-45.3234 221.878,-40.0554"/>
</g>
</g>
</svg>
