<?xml version="1.0" encoding="UTF-8" standalone="no"?>
<!DOCTYPE svg PUBLIC "-//W3C//DTD SVG 1.1//EN"
 "http://www.w3.org/Graphics/SVG/1.1/DTD/svg11.dtd">
<!-- Generated by graphviz version 2.38.0 (20140413.2041)
 -->
<!-- Title: graphname Pages: 1 -->
<svg width="190pt" height="210pt"
 viewBox="0.00 0.00 189.78 209.57" xmlns="http://www.w3.org/2000/svg" xmlns:xlink="http://www.w3.org/1999/xlink">
<g id="graph0" class="graph" transform="scale(1 1) rotate(0) translate(4 205.569)">
<title>graphname</title>
<polygon fill="white" stroke="none" points="-4,4 -4,-205.569 185.777,-205.569 185.777,4 -4,4"/>
<!-- parent -->
<g id="node1" class="node"><title>parent</title>
<path fill="none" stroke="black" stroke-width="0.7" d="M42,-124.177C42,-124.177 12,-124.177 12,-124.177 6,-124.177 0,-118.177 0,-112.177 0,-112.177 0,-100.177 0,-100.177 0,-94.1769 6,-88.1769 12,-88.1769 12,-88.1769 42,-88.1769 42,-88.1769 48,-88.1769 54,-94.1769 54,-100.177 54,-100.177 54,-112.177 54,-112.177 54,-118.177 48,-124.177 42,-124.177"/>
<text text-anchor="middle" x="27" y="-103.077" font-family="sans-serif" font-size="12.00">parent</text>
</g>
<!-- x -->
<g id="node2" class="node"><title>x</title>
<ellipse fill="none" stroke="black" stroke-width="0.7" cx="27" cy="-23.3923" rx="23.2851" ry="23.2851"/>
<text text-anchor="middle" x="27" y="-20.2923" font-family="sans-serif" font-size="12.00">x: 1</text>
</g>
<!-- parent&#45;&gt;x -->
<g id="edge1" class="edge"><title>parent&#45;&gt;x</title>
<path fill="none" stroke="black" stroke-width="0.7" d="M27,-88.0446C27,-79.0825 27,-67.803 27,-57.2378"/>
<polygon fill="black" stroke="black" stroke-width="0.7" points="30.5001,-57.0229 27,-47.0229 23.5001,-57.0229 30.5001,-57.0229"/>
</g>
<!-- child -->
<g id="node3" class="node"><title>child</title>
<path fill="none" stroke="black" stroke-width="0.7" d="M110,-201.569C110,-201.569 80,-201.569 80,-201.569 74,-201.569 68,-195.569 68,-189.569 68,-189.569 68,-177.569 68,-177.569 68,-171.569 74,-165.569 80,-165.569 80,-165.569 110,-165.569 110,-165.569 116,-165.569 122,-171.569 122,-177.569 122,-177.569 122,-189.569 122,-189.569 122,-195.569 116,-201.569 110,-201.569"/>
<text text-anchor="middle" x="95" y="-180.469" font-family="sans-serif" font-size="12.00">child</text>
</g>
<!-- child&#45;&gt;parent -->
<g id="edge4" class="edge"><title>child&#45;&gt;parent</title>
<path fill="none" stroke="black" stroke-width="0.7" d="M79.5697,-165.462C70.6147,-155.533 59.1804,-142.856 49.2642,-131.862"/>
<polygon fill="black" stroke="black" stroke-width="0.7" points="51.6659,-129.298 42.3692,-124.217 46.4678,-133.987 51.6659,-129.298"/>
</g>
<!-- y -->
<g id="node4" class="node"><title>y</title>
<ellipse fill="none" stroke="black" stroke-width="0.7" cx="95" cy="-106.177" rx="23.2851" ry="23.2851"/>
<text text-anchor="middle" x="95" y="-103.077" font-family="sans-serif" font-size="12.00">y: 2</text>
</g>
<!-- child&#45;&gt;y -->
<g id="edge2" class="edge"><title>child&#45;&gt;y</title>
<path fill="none" stroke="black" stroke-width="0.7" d="M95,-165.462C95,-157.842 95,-148.604 95,-139.751"/>
<polygon fill="black" stroke="black" stroke-width="0.7" points="98.5001,-139.653 95,-129.654 91.5001,-139.654 98.5001,-139.653"/>
</g>
<!-- z -->
<g id="node5" class="node"><title>z</title>
<ellipse fill="none" stroke="black" stroke-width="0.7" cx="159" cy="-106.177" rx="22.5556" ry="22.5556"/>
<text text-anchor="middle" x="159" y="-103.077" font-family="sans-serif" font-size="12.00">z: 3</text>
</g>
<!-- child&#45;&gt;z -->
<g id="edge3" class="edge"><title>child&#45;&gt;z</title>
<path fill="none" stroke="black" stroke-width="0.7" d="M109.523,-165.462C118.01,-155.463 128.864,-142.677 138.242,-131.63"/>
<polygon fill="black" stroke="black" stroke-width="0.7" points="140.952,-133.846 144.755,-123.957 135.615,-129.316 140.952,-133.846"/>
</g>
</g>
</svg>
