<?xml version="1.0" encoding="UTF-8" standalone="no"?>
<!DOCTYPE svg PUBLIC "-//W3C//DTD SVG 1.1//EN"
 "http://www.w3.org/Graphics/SVG/1.1/DTD/svg11.dtd">
<!-- Generated by graphviz version 2.38.0 (20140413.2041)
 -->
<!-- Title: graphname Pages: 1 -->
<svg width="253pt" height="292pt"
 viewBox="0.00 0.00 253.17 292.35" xmlns="http://www.w3.org/2000/svg" xmlns:xlink="http://www.w3.org/1999/xlink">
<g id="graph0" class="graph" transform="scale(1 1) rotate(0) translate(4 288.354)">
<title>graphname</title>
<polygon fill="white" stroke="none" points="-4,4 -4,-288.354 249.169,-288.354 249.169,4 -4,4"/>
<!-- grandpa -->
<g id="node1" class="node"><title>grandpa</title>
<path fill="none" stroke="black" stroke-width="0.7" d="M73.3923,-124.177C73.3923,-124.177 37.3923,-124.177 37.3923,-124.177 31.3923,-124.177 25.3923,-118.177 25.3923,-112.177 25.3923,-112.177 25.3923,-100.177 25.3923,-100.177 25.3923,-94.1769 31.3923,-88.1769 37.3923,-88.1769 37.3923,-88.1769 73.3923,-88.1769 73.3923,-88.1769 79.3923,-88.1769 85.3923,-94.1769 85.3923,-100.177 85.3923,-100.177 85.3923,-112.177 85.3923,-112.177 85.3923,-118.177 79.3923,-124.177 73.3923,-124.177"/>
<text text-anchor="middle" x="55.3923" y="-103.077" font-family="sans-serif" font-size="12.00">grandpa</text>
</g>
<!-- a -->
<g id="node2" class="node"><title>a</title>
<ellipse fill="none" stroke="black" stroke-width="0.7" cx="23.3923" cy="-23.3923" rx="23.2851" ry="23.2851"/>
<text text-anchor="middle" x="23.3923" y="-20.2923" font-family="sans-serif" font-size="12.00">a: 1</text>
</g>
<!-- grandpa&#45;&gt;a -->
<g id="edge1" class="edge"><title>grandpa&#45;&gt;a</title>
<path fill="none" stroke="black" stroke-width="0.7" d="M48.6059,-88.0446C44.8031,-78.4442 39.9468,-66.1846 35.5134,-54.9923"/>
<polygon fill="black" stroke="black" stroke-width="0.7" points="38.7002,-53.5334 31.7634,-45.5252 32.1922,-56.1113 38.7002,-53.5334"/>
</g>
<!-- b -->
<g id="node3" class="node"><title>b</title>
<ellipse fill="none" stroke="black" stroke-width="0.7" cx="88.3923" cy="-23.3923" rx="23.2851" ry="23.2851"/>
<text text-anchor="middle" x="88.3923" y="-20.2923" font-family="sans-serif" font-size="12.00">b: 2</text>
</g>
<!-- grandpa&#45;&gt;b -->
<g id="edge2" class="edge"><title>grandpa&#45;&gt;b</title>
<path fill="none" stroke="black" stroke-width="0.7" d="M62.3908,-88.0446C66.3417,-78.3726 71.3952,-66.0014 75.9947,-54.7419"/>
<polygon fill="black" stroke="black" stroke-width="0.7" points="79.339,-55.8102 79.8806,-45.2292 72.8588,-53.163 79.339,-55.8102"/>
</g>
<!-- dad -->
<g id="node4" class="node"><title>dad</title>
<path fill="none" stroke="black" stroke-width="0.7" d="M105.392,-206.962C105.392,-206.962 75.3923,-206.962 75.3923,-206.962 69.3923,-206.962 63.3923,-200.962 63.3923,-194.962 63.3923,-194.962 63.3923,-182.962 63.3923,-182.962 63.3923,-176.962 69.3923,-170.962 75.3923,-170.962 75.3923,-170.962 105.392,-170.962 105.392,-170.962 111.392,-170.962 117.392,-176.962 117.392,-182.962 117.392,-182.962 117.392,-194.962 117.392,-194.962 117.392,-200.962 111.392,-206.962 105.392,-206.962"/>
<text text-anchor="middle" x="90.3923" y="-185.862" font-family="sans-serif" font-size="12.00">dad</text>
</g>
<!-- dad&#45;&gt;grandpa -->
<g id="edge4" class="edge"><title>dad&#45;&gt;grandpa</title>
<path fill="none" stroke="black" stroke-width="0.7" d="M82.9697,-170.829C78.283,-160.012 72.1334,-145.818 66.8309,-133.579"/>
<polygon fill="black" stroke="black" stroke-width="0.7" points="69.9912,-132.069 62.8042,-124.285 63.5682,-134.852 69.9912,-132.069"/>
</g>
<!-- x -->
<g id="node5" class="node"><title>x</title>
<ellipse fill="none" stroke="black" stroke-width="0.7" cx="126.392" cy="-106.177" rx="23.2851" ry="23.2851"/>
<text text-anchor="middle" x="126.392" y="-103.077" font-family="sans-serif" font-size="12.00">x: 3</text>
</g>
<!-- dad&#45;&gt;x -->
<g id="edge3" class="edge"><title>dad&#45;&gt;x</title>
<path fill="none" stroke="black" stroke-width="0.7" d="M98.027,-170.829C102.413,-160.987 108.044,-148.35 113.132,-136.934"/>
<polygon fill="black" stroke="black" stroke-width="0.7" points="116.365,-138.278 117.238,-127.719 109.971,-135.428 116.365,-138.278"/>
</g>
<!-- son -->
<g id="node6" class="node"><title>son</title>
<path fill="none" stroke="black" stroke-width="0.7" d="M173.392,-284.354C173.392,-284.354 143.392,-284.354 143.392,-284.354 137.392,-284.354 131.392,-278.354 131.392,-272.354 131.392,-272.354 131.392,-260.354 131.392,-260.354 131.392,-254.354 137.392,-248.354 143.392,-248.354 143.392,-248.354 173.392,-248.354 173.392,-248.354 179.392,-248.354 185.392,-254.354 185.392,-260.354 185.392,-260.354 185.392,-272.354 185.392,-272.354 185.392,-278.354 179.392,-284.354 173.392,-284.354"/>
<text text-anchor="middle" x="158.392" y="-263.254" font-family="sans-serif" font-size="12.00">son</text>
</g>
<!-- son&#45;&gt;dad -->
<g id="edge7" class="edge"><title>son&#45;&gt;dad</title>
<path fill="none" stroke="black" stroke-width="0.7" d="M142.962,-248.246C134.007,-238.318 122.573,-225.64 112.657,-214.646"/>
<polygon fill="black" stroke="black" stroke-width="0.7" points="115.058,-212.083 105.761,-207.002 109.86,-216.771 115.058,-212.083"/>
</g>
<!-- y -->
<g id="node7" class="node"><title>y</title>
<ellipse fill="none" stroke="black" stroke-width="0.7" cx="158.392" cy="-188.962" rx="23.2851" ry="23.2851"/>
<text text-anchor="middle" x="158.392" y="-185.862" font-family="sans-serif" font-size="12.00">y: 4</text>
</g>
<!-- son&#45;&gt;y -->
<g id="edge5" class="edge"><title>son&#45;&gt;y</title>
<path fill="none" stroke="black" stroke-width="0.7" d="M158.392,-248.246C158.392,-240.627 158.392,-231.389 158.392,-222.535"/>
<polygon fill="black" stroke="black" stroke-width="0.7" points="161.892,-222.438 158.392,-212.438 154.892,-222.438 161.892,-222.438"/>
</g>
<!-- z -->
<g id="node8" class="node"><title>z</title>
<ellipse fill="none" stroke="black" stroke-width="0.7" cx="222.392" cy="-188.962" rx="22.5556" ry="22.5556"/>
<text text-anchor="middle" x="222.392" y="-185.862" font-family="sans-serif" font-size="12.00">z: 5</text>
</g>
<!-- son&#45;&gt;z -->
<g id="edge6" class="edge"><title>son&#45;&gt;z</title>
<path fill="none" stroke="black" stroke-width="0.7" d="M172.915,-248.246C181.403,-238.248 192.257,-225.462 201.635,-214.414"/>
<polygon fill="black" stroke="black" stroke-width="0.7" points="204.344,-216.63 208.148,-206.742 199.008,-212.1 204.344,-216.63"/>
</g>
</g>
</svg>
