<?xml version="1.0" encoding="UTF-8" standalone="no"?>
<!DOCTYPE svg PUBLIC "-//W3C//DTD SVG 1.1//EN"
 "http://www.w3.org/Graphics/SVG/1.1/DTD/svg11.dtd">
<!-- Generated by graphviz version 2.38.0 (20140413.2041)
 -->
<!-- Title: graphname Pages: 1 -->
<svg width="98pt" height="332pt"
 viewBox="0.00 0.00 98.00 332.00" xmlns="http://www.w3.org/2000/svg" xmlns:xlink="http://www.w3.org/1999/xlink">
<g id="graph0" class="graph" transform="scale(1 1) rotate(0) translate(4 328)">
<title>graphname</title>
<polygon fill="white" stroke="none" points="-4,4 -4,-328 94,-328 94,4 -4,4"/>
<!-- A -->
<g id="node1" class="node"><title>A</title>
<ellipse fill="none" stroke="black" stroke-width="0.7" cx="45" cy="-18" rx="18" ry="18"/>
<text text-anchor="middle" x="45" y="-14.9" font-family="sans-serif" font-size="12.00">A</text>
</g>
<!-- B -->
<g id="node2" class="node"><title>B</title>
<ellipse fill="none" stroke="black" stroke-width="0.7" cx="18" cy="-90" rx="18" ry="18"/>
<text text-anchor="middle" x="18" y="-86.9" font-family="sans-serif" font-size="12.00">B</text>
</g>
<!-- B&#45;&gt;A -->
<g id="edge1" class="edge"><title>B&#45;&gt;A</title>
<path fill="none" stroke="black" stroke-width="0.7" d="M24.2622,-72.7646C27.4996,-64.3715 31.5253,-53.9344 35.1661,-44.4952"/>
<polygon fill="black" stroke="black" stroke-width="0.7" points="38.4385,-45.7369 38.7718,-35.1473 31.9075,-43.2178 38.4385,-45.7369"/>
</g>
<!-- C -->
<g id="node3" class="node"><title>C</title>
<ellipse fill="none" stroke="black" stroke-width="0.7" cx="72" cy="-90" rx="18" ry="18"/>
<text text-anchor="middle" x="72" y="-86.9" font-family="sans-serif" font-size="12.00">C</text>
</g>
<!-- C&#45;&gt;A -->
<g id="edge2" class="edge"><title>C&#45;&gt;A</title>
<path fill="none" stroke="black" stroke-width="0.7" d="M65.7378,-72.7646C62.5004,-64.3715 58.4747,-53.9344 54.8339,-44.4952"/>
<polygon fill="black" stroke="black" stroke-width="0.7" points="58.0925,-43.2178 51.2282,-35.1473 51.5615,-45.7369 58.0925,-43.2178"/>
</g>
<!-- D -->
<g id="node4" class="node"><title>D</title>
<ellipse fill="none" stroke="black" stroke-width="0.7" cx="70" cy="-162" rx="18" ry="18"/>
<text text-anchor="middle" x="70" y="-158.9" font-family="sans-serif" font-size="12.00">D</text>
</g>
<!-- D&#45;&gt;C -->
<g id="edge3" class="edge"><title>D&#45;&gt;C</title>
<path fill="none" stroke="black" stroke-width="0.7" d="M70.4944,-143.697C70.7148,-135.983 70.9796,-126.712 71.2254,-118.112"/>
<polygon fill="black" stroke="black" stroke-width="0.7" points="74.7242,-118.2 71.5113,-108.104 67.727,-118 74.7242,-118.2"/>
</g>
<!-- E -->
<g id="node5" class="node"><title>E</title>
<ellipse fill="none" stroke="black" stroke-width="0.7" cx="43" cy="-234" rx="18" ry="18"/>
<text text-anchor="middle" x="43" y="-230.9" font-family="sans-serif" font-size="12.00">E</text>
</g>
<!-- E&#45;&gt;B -->
<g id="edge5" class="edge"><title>E&#45;&gt;B</title>
<path fill="none" stroke="black" stroke-width="0.7" d="M40.034,-216.153C35.7676,-191.92 27.8529,-146.965 22.7617,-118.046"/>
<polygon fill="black" stroke="black" stroke-width="0.7" points="26.1431,-117.067 20.9621,-107.825 19.2491,-118.28 26.1431,-117.067"/>
</g>
<!-- E&#45;&gt;D -->
<g id="edge4" class="edge"><title>E&#45;&gt;D</title>
<path fill="none" stroke="black" stroke-width="0.7" d="M49.2622,-216.765C52.4996,-208.371 56.5253,-197.934 60.1661,-188.495"/>
<polygon fill="black" stroke="black" stroke-width="0.7" points="63.4385,-189.737 63.7718,-179.147 56.9075,-187.218 63.4385,-189.737"/>
</g>
<!-- F -->
<g id="node6" class="node"><title>F</title>
<ellipse fill="none" stroke="black" stroke-width="0.7" cx="43" cy="-306" rx="18" ry="18"/>
<text text-anchor="middle" x="43" y="-302.9" font-family="sans-serif" font-size="12.00">F</text>
</g>
<!-- F&#45;&gt;E -->
<g id="edge6" class="edge"><title>F&#45;&gt;E</title>
<path fill="none" stroke="black" stroke-width="0.7" d="M43,-287.697C43,-279.983 43,-270.712 43,-262.112"/>
<polygon fill="black" stroke="black" stroke-width="0.7" points="46.5001,-262.104 43,-252.104 39.5001,-262.104 46.5001,-262.104"/>
</g>
</g>
</svg>
