<?xml version="1.0" encoding="UTF-8" standalone="no"?>
<!DOCTYPE svg PUBLIC "-//W3C//DTD SVG 1.1//EN"
 "http://www.w3.org/Graphics/SVG/1.1/DTD/svg11.dtd">
<!-- Generated by graphviz version 2.38.0 (20140413.2041)
 -->
<!-- Title: graphname Pages: 1 -->
<svg width="404pt" height="44pt"
 viewBox="0.00 0.00 404.00 44.00" xmlns="http://www.w3.org/2000/svg" xmlns:xlink="http://www.w3.org/1999/xlink">
<g id="graph0" class="graph" transform="scale(1 1) rotate(0) translate(4 40)">
<title>graphname</title>
<polygon fill="white" stroke="none" points="-4,4 -4,-40 400,-40 400,4 -4,4"/>
<!-- A -->
<g id="node1" class="node"><title>A</title>
<ellipse fill="none" stroke="black" stroke-width="0.7" cx="378" cy="-18" rx="18" ry="18"/>
<text text-anchor="middle" x="378" y="-14.9" font-family="sans-serif" font-size="12.00">A</text>
</g>
<!-- B -->
<g id="node2" class="node"><title>B</title>
<ellipse fill="none" stroke="black" stroke-width="0.7" cx="162" cy="-18" rx="18" ry="18"/>
<text text-anchor="middle" x="162" y="-14.9" font-family="sans-serif" font-size="12.00">B</text>
</g>
<!-- D -->
<g id="node4" class="node"><title>D</title>
<ellipse fill="none" stroke="black" stroke-width="0.7" cx="234" cy="-18" rx="18" ry="18"/>
<text text-anchor="middle" x="234" y="-14.9" font-family="sans-serif" font-size="12.00">D</text>
</g>
<!-- B&#45;&gt;D -->
<g id="edge3" class="edge"><title>B&#45;&gt;D</title>
<path fill="none" stroke="black" stroke-width="0.7" d="M180.303,-18C188.017,-18 197.288,-18 205.888,-18"/>
<polygon fill="black" stroke="black" stroke-width="0.7" points="205.896,-21.5001 215.896,-18 205.896,-14.5001 205.896,-21.5001"/>
</g>
<!-- C -->
<g id="node3" class="node"><title>C</title>
<ellipse fill="none" stroke="black" stroke-width="0.7" cx="306" cy="-18" rx="18" ry="18"/>
<text text-anchor="middle" x="306" y="-14.9" font-family="sans-serif" font-size="12.00">C</text>
</g>
<!-- C&#45;&gt;A -->
<g id="edge5" class="edge"><title>C&#45;&gt;A</title>
<path fill="none" stroke="black" stroke-width="0.7" d="M324.303,-18C332.017,-18 341.288,-18 349.888,-18"/>
<polygon fill="black" stroke="black" stroke-width="0.7" points="349.896,-21.5001 359.896,-18 349.896,-14.5001 349.896,-21.5001"/>
</g>
<!-- D&#45;&gt;C -->
<g id="edge4" class="edge"><title>D&#45;&gt;C</title>
<path fill="none" stroke="black" stroke-width="0.7" d="M252.303,-18C260.017,-18 269.288,-18 277.888,-18"/>
<polygon fill="black" stroke="black" stroke-width="0.7" points="277.896,-21.5001 287.896,-18 277.896,-14.5001 277.896,-21.5001"/>
</g>
<!-- E -->
<g id="node5" class="node"><title>E</title>
<ellipse fill="none" stroke="black" stroke-width="0.7" cx="90" cy="-18" rx="18" ry="18"/>
<text text-anchor="middle" x="90" y="-14.9" font-family="sans-serif" font-size="12.00">E</text>
</g>
<!-- E&#45;&gt;B -->
<g id="edge2" class="edge"><title>E&#45;&gt;B</title>
<path fill="none" stroke="black" stroke-width="0.7" d="M108.303,-18C116.017,-18 125.288,-18 133.888,-18"/>
<polygon fill="black" stroke="black" stroke-width="0.7" points="133.896,-21.5001 143.896,-18 133.896,-14.5001 133.896,-21.5001"/>
</g>
<!-- F -->
<g id="node6" class="node"><title>F</title>
<ellipse fill="none" stroke="black" stroke-width="0.7" cx="18" cy="-18" rx="18" ry="18"/>
<text text-anchor="middle" x="18" y="-14.9" font-family="sans-serif" font-size="12.00">F</text>
</g>
<!-- F&#45;&gt;E -->
<g id="edge1" class="edge"><title>F&#45;&gt;E</title>
<path fill="none" stroke="black" stroke-width="0.7" d="M36.3034,-18C44.0173,-18 53.2875,-18 61.8876,-18"/>
<polygon fill="black" stroke="black" stroke-width="0.7" points="61.8957,-21.5001 71.8957,-18 61.8956,-14.5001 61.8957,-21.5001"/>
</g>
</g>
</svg>
